<?xml version="1.0" encoding="UTF-8"?>
<svg version="1.1" xmlns="http://www.w3.org/2000/svg" width="800" height="600">
<path d="M0 0 C264 0 528 0 800 0 C800 198 800 396 800 600 C536 600 272 600 0 600 C0 402 0 204 0 0 Z " fill="#FEFEFE" transform="translate(0,0)"/>
<path d="M0 0 C2.13160829 -0.0043448 4.26109595 -0.04058633 6.39233398 -0.07861328 C17.78747017 -0.176827 23.61144301 1.91441007 32.09350586 9.43310547 C33.22058262 10.41567672 34.34955277 11.39607957 35.48022461 12.37451172 C36.05434082 12.87225098 36.62845703 13.36999023 37.2199707 13.8828125 C40.05228861 16.29277415 42.9730172 18.58501038 45.90600586 20.87060547 C46.48253906 21.32016602 47.05907227 21.76972656 47.65307617 22.23291016 C48.82693537 23.14707177 50.00125412 24.06064358 51.17602539 24.97363281 C53.01682609 26.40826392 54.85101122 27.850966 56.68334961 29.29638672 C57.60289429 30.02148438 57.60289429 30.02148438 58.54101562 30.76123047 C59.69421591 31.67092009 60.84708046 32.58103557 61.99951172 33.49169922 C63.05556979 34.32315566 64.12012605 35.14396125 65.19392395 35.95237732 C66.96850586 37.37060547 66.96850586 37.37060547 68.47698975 38.91419983 C75.01282312 45.01677013 82.76853764 44.15553512 91.14819336 44.03466797 C92.72706633 44.03576372 94.30594001 44.04008238 95.88479614 44.04745483 C100.02732279 44.06081313 104.16897712 44.04211612 108.31140137 44.01300049 C114.9324326 43.96751541 121.55298674 43.9521672 128.17413712 43.97254562 C130.47097722 43.97217636 132.76655231 43.94654486 135.0632019 43.91885376 C144.41927406 43.87874081 152.37465569 44.55092782 159.77319336 50.70263672 C161.88255001 53.22988478 163.96989461 55.75453709 165.96850586 58.37060547 C166.45834961 58.99451172 166.94819336 59.61841797 167.45288086 60.26123047 C170.1603374 64.22969416 170.29498823 67.56905688 169.91381836 72.15966797 C168.4830493 75.50601214 166.01251022 77.51105191 162.96850586 79.37060547 C159.46697998 79.97619629 159.46697998 79.97619629 155.5612793 79.95068359 C154.84494827 79.95313583 154.12861725 79.95558807 153.39057922 79.95811462 C151.84372377 79.96027797 150.29681861 79.95107473 148.75008392 79.93162537 C146.29316805 79.90142883 143.83798588 79.90261845 141.38092041 79.91174316 C135.27791643 79.92798561 129.1754521 79.89078049 123.0725708 79.85516357 C117.91391528 79.8270917 112.75600057 79.81963025 107.59729767 79.83872986 C105.19176865 79.83934238 102.78781386 79.81028919 100.38250732 79.77990723 C88.88523165 79.74464134 81.05890111 82.15244294 72.34350586 89.93310547 C67.76129683 93.92164655 63.04140528 97.63504138 58.15600586 101.24560547 C52.79016485 105.21947366 47.52880462 109.28898444 42.34350586 113.49560547 C21.31905932 130.51526282 21.31905932 130.51526282 11.65991211 130.57373047 C10.93738754 130.57943054 10.21486298 130.58513062 9.47044373 130.59100342 C7.94141098 130.60045265 6.41235787 130.6069871 4.88330078 130.61083984 C2.54350345 130.62055358 0.20458163 130.65157923 -2.13500977 130.68310547 C-3.62003059 130.68963484 -5.10505769 130.69488557 -6.59008789 130.69873047 C-7.29016464 130.71107727 -7.99024139 130.72342407 -8.71153259 130.73614502 C-11.47366866 130.72347009 -13.59954761 130.60132369 -16.05908203 129.28759766 C-17.27843666 126.88378832 -17.39491644 125.0112547 -16.87426758 122.37365723 C-14.99374411 117.9041454 -11.10398485 114.77144977 -7.65649414 111.47998047 C-6.39699951 110.24033539 -6.39699951 110.24033539 -5.11206055 108.97564697 C-2.43237295 106.34270825 0.26682132 103.73095192 2.96850586 101.12060547 C5.66660721 98.49259714 8.36039517 95.86036648 11.04907227 93.22271729 C12.72217235 91.58361058 14.40138406 89.95071495 16.0871582 88.324646 C16.84464355 87.58667786 17.60212891 86.84870972 18.38256836 86.08837891 C19.38731201 85.11744293 19.38731201 85.11744293 20.41235352 84.12689209 C22.19435722 82.34714727 22.19435722 82.34714727 22.96850586 79.37060547 C22.15941772 79.38170853 21.35032959 79.39281158 20.51672363 79.4042511 C12.86687416 79.50471458 5.21734755 79.58070201 -2.43299103 79.62966633 C-6.3655273 79.65568649 -10.29751545 79.6909432 -14.22973633 79.74780273 C-18.0293664 79.802397 -21.82847152 79.83208295 -25.62846375 79.84499168 C-27.07330075 79.85418284 -28.51811117 79.87213103 -29.96272278 79.89925575 C-38.01719082 80.04438374 -44.84063947 80.15472067 -51.03149414 74.37060547 C-53.05395508 72.19799805 -53.05395508 72.19799805 -54.51586914 69.95263672 C-55.36761719 68.64866943 -55.36761719 68.64866943 -56.23657227 67.31835938 C-59.70143616 61.62810275 -63.01818518 55.86518802 -66.28149414 50.05810547 C-67.34383955 48.17892481 -68.40759163 46.30054641 -69.47161865 44.4223175 C-70.42776872 42.73278011 -71.3806155 41.04137453 -72.33325195 39.34985352 C-73.4248229 37.43489661 -74.55568917 35.54153224 -75.73364258 33.6784668 C-77.39597472 30.72248002 -77.40254302 28.71004539 -77.03149414 25.37060547 C-73.84077844 22.17988977 -70.12182353 23.00209326 -65.78149414 22.99560547 C-64.93458008 22.97111328 -64.08766602 22.94662109 -63.21508789 22.92138672 C-53.84591678 22.87767363 -49.035838 28.06621687 -42.61938477 34.30419922 C-42.12760742 34.76955078 -41.63583008 35.23490234 -41.12915039 35.71435547 C-40.70126221 36.12878906 -40.27337402 36.54322266 -39.83251953 36.97021484 C-33.16902562 42.15142687 -28.37970088 42.96968374 -20.06665039 42.97998047 C-19.03334091 42.99651672 -18.00003143 43.01305298 -16.93540955 43.03009033 C-13.65487647 43.07843774 -10.37480655 43.09991241 -7.09399414 43.12060547 C-4.86154913 43.14877614 -2.62912557 43.1787051 -0.39672852 43.21044922 C5.0582659 43.28419296 10.51313077 43.3359131 15.96850586 43.37060547 C10.66291731 37.2197841 10.66291731 37.2197841 5.03100586 31.37060547 C4.36327148 30.71060547 3.69553711 30.05060547 3.00756836 29.37060547 C2.33467773 28.71060547 1.66178711 28.05060547 0.96850586 27.37060547 C-12.44820983 14.21091499 -12.44820983 14.21091499 -17.03149414 7.37060547 C-16.90649414 4.74560547 -16.90649414 4.74560547 -16.03149414 2.37060547 C-11.21189868 -0.84245817 -5.63838494 -0.00128716 0 0 Z " fill="#FEFDFC" transform="translate(355.031494140625,247.62939453125)"/>
<path d="M0 0 C2.13160829 -0.0043448 4.26109595 -0.04058633 6.39233398 -0.07861328 C17.78747017 -0.176827 23.61144301 1.91441007 32.09350586 9.43310547 C33.22058262 10.41567672 34.34955277 11.39607957 35.48022461 12.37451172 C36.05434082 12.87225098 36.62845703 13.36999023 37.2199707 13.8828125 C40.05228861 16.29277415 42.9730172 18.58501038 45.90600586 20.87060547 C46.48253906 21.32016602 47.05907227 21.76972656 47.65307617 22.23291016 C48.82693537 23.14707177 50.00125412 24.06064358 51.17602539 24.97363281 C53.01682609 26.40826392 54.85101122 27.850966 56.68334961 29.29638672 C57.60289429 30.02148438 57.60289429 30.02148438 58.54101562 30.76123047 C59.69421591 31.67092009 60.84708046 32.58103557 61.99951172 33.49169922 C63.05556979 34.32315566 64.12012605 35.14396125 65.19392395 35.95237732 C66.96850586 37.37060547 66.96850586 37.37060547 68.47698975 38.91419983 C75.01282312 45.01677013 82.76853764 44.15553512 91.14819336 44.03466797 C92.72706633 44.03576372 94.30594001 44.04008238 95.88479614 44.04745483 C100.02732279 44.06081313 104.16897712 44.04211612 108.31140137 44.01300049 C114.9324326 43.96751541 121.55298674 43.9521672 128.17413712 43.97254562 C130.47097722 43.97217636 132.76655231 43.94654486 135.0632019 43.91885376 C144.41927406 43.87874081 152.37465569 44.55092782 159.77319336 50.70263672 C161.88255001 53.22988478 163.96989461 55.75453709 165.96850586 58.37060547 C166.45834961 58.99451172 166.94819336 59.61841797 167.45288086 60.26123047 C170.1603374 64.22969416 170.29498823 67.56905688 169.91381836 72.15966797 C168.4830493 75.50601214 166.01251022 77.51105191 162.96850586 79.37060547 C159.46697998 79.97619629 159.46697998 79.97619629 155.5612793 79.95068359 C154.84494827 79.95313583 154.12861725 79.95558807 153.39057922 79.95811462 C151.84372377 79.96027797 150.29681861 79.95107473 148.75008392 79.93162537 C146.29316805 79.90142883 143.83798588 79.90261845 141.38092041 79.91174316 C135.27791643 79.92798561 129.1754521 79.89078049 123.0725708 79.85516357 C117.91391528 79.8270917 112.75600057 79.81963025 107.59729767 79.83872986 C105.19176865 79.83934238 102.78781386 79.81028919 100.38250732 79.77990723 C88.88523165 79.74464134 81.05890111 82.15244294 72.34350586 89.93310547 C67.76129683 93.92164655 63.04140528 97.63504138 58.15600586 101.24560547 C52.79016485 105.21947366 47.52880462 109.28898444 42.34350586 113.49560547 C21.31905932 130.51526282 21.31905932 130.51526282 11.65991211 130.57373047 C10.93738754 130.57943054 10.21486298 130.58513062 9.47044373 130.59100342 C7.94141098 130.60045265 6.41235787 130.6069871 4.88330078 130.61083984 C2.54350345 130.62055358 0.20458163 130.65157923 -2.13500977 130.68310547 C-3.62003059 130.68963484 -5.10505769 130.69488557 -6.59008789 130.69873047 C-7.29016464 130.71107727 -7.99024139 130.72342407 -8.71153259 130.73614502 C-11.47366866 130.72347009 -13.59954761 130.60132369 -16.05908203 129.28759766 C-17.27843666 126.88378832 -17.39491644 125.0112547 -16.87426758 122.37365723 C-14.99374411 117.9041454 -11.10398485 114.77144977 -7.65649414 111.47998047 C-6.39699951 110.24033539 -6.39699951 110.24033539 -5.11206055 108.97564697 C-2.43237295 106.34270825 0.26682132 103.73095192 2.96850586 101.12060547 C5.66660721 98.49259714 8.36039517 95.86036648 11.04907227 93.22271729 C12.72217235 91.58361058 14.40138406 89.95071495 16.0871582 88.324646 C16.84464355 87.58667786 17.60212891 86.84870972 18.38256836 86.08837891 C19.38731201 85.11744293 19.38731201 85.11744293 20.41235352 84.12689209 C22.19435722 82.34714727 22.19435722 82.34714727 22.96850586 79.37060547 C22.15941772 79.38170853 21.35032959 79.39281158 20.51672363 79.4042511 C12.86687416 79.50471458 5.21734755 79.58070201 -2.43299103 79.62966633 C-6.3655273 79.65568649 -10.29751545 79.6909432 -14.22973633 79.74780273 C-18.0293664 79.802397 -21.82847152 79.83208295 -25.62846375 79.84499168 C-27.07330075 79.85418284 -28.51811117 79.87213103 -29.96272278 79.89925575 C-38.01719082 80.04438374 -44.84063947 80.15472067 -51.03149414 74.37060547 C-53.05395508 72.19799805 -53.05395508 72.19799805 -54.51586914 69.95263672 C-55.36761719 68.64866943 -55.36761719 68.64866943 -56.23657227 67.31835938 C-59.70143616 61.62810275 -63.01818518 55.86518802 -66.28149414 50.05810547 C-67.34383955 48.17892481 -68.40759163 46.30054641 -69.47161865 44.4223175 C-70.42776872 42.73278011 -71.3806155 41.04137453 -72.33325195 39.34985352 C-73.4248229 37.43489661 -74.55568917 35.54153224 -75.73364258 33.6784668 C-77.39597472 30.72248002 -77.40254302 28.71004539 -77.03149414 25.37060547 C-73.84077844 22.17988977 -70.12182353 23.00209326 -65.78149414 22.99560547 C-64.93458008 22.97111328 -64.08766602 22.94662109 -63.21508789 22.92138672 C-53.84591678 22.87767363 -49.035838 28.06621687 -42.61938477 34.30419922 C-42.12760742 34.76955078 -41.63583008 35.23490234 -41.12915039 35.71435547 C-40.70126221 36.12878906 -40.27337402 36.54322266 -39.83251953 36.97021484 C-33.16902562 42.15142687 -28.37970088 42.96968374 -20.06665039 42.97998047 C-19.03334091 42.99651672 -18.00003143 43.01305298 -16.93540955 43.03009033 C-13.65487647 43.07843774 -10.37480655 43.09991241 -7.09399414 43.12060547 C-4.86154913 43.14877614 -2.62912557 43.1787051 -0.39672852 43.21044922 C5.0582659 43.28419296 10.51313077 43.3359131 15.96850586 43.37060547 C10.66291731 37.2197841 10.66291731 37.2197841 5.03100586 31.37060547 C4.36327148 30.71060547 3.69553711 30.05060547 3.00756836 29.37060547 C2.33467773 28.71060547 1.66178711 28.05060547 0.96850586 27.37060547 C-12.44820983 14.21091499 -12.44820983 14.21091499 -17.03149414 7.37060547 C-16.90649414 4.74560547 -16.90649414 4.74560547 -16.03149414 2.37060547 C-11.21189868 -0.84245817 -5.63838494 -0.00128716 0 0 Z M-73.03149414 27.37060547 C-70.73988049 37.43818939 -66.30965524 48.87760449 -58.03149414 55.37060547 C-47.99481199 59.01227436 -35.32899229 56.76772646 -25.03149414 55.37060547 C-25.52649414 56.85560547 -25.52649414 56.85560547 -26.03149414 58.37060547 C-35.60149414 58.70060547 -45.17149414 59.03060547 -55.03149414 59.37060547 C-51.27531283 68.59146983 -51.27531283 68.59146983 -44.03149414 74.37060547 C-39.7148094 74.9562214 -35.45654685 75.01275939 -31.11124802 74.96219063 C-28.89955679 74.9366611 -26.68971893 74.94160065 -24.47793579 74.9540863 C-19.78724876 74.97477555 -15.0971428 74.95516952 -10.40649414 74.93310547 C-4.96198122 74.91198385 0.48193338 74.90742854 5.92643356 74.9336071 C8.10272036 74.93696566 10.27785934 74.91576126 12.45401001 74.89320374 C13.78908538 74.89571497 15.12415933 74.89927498 16.45922852 74.90405273 C18.20413071 74.89475487 18.20413071 74.89475487 19.98428345 74.88526917 C22.96850586 75.37060547 22.96850586 75.37060547 25.43783569 77.08726501 C26.96850586 79.37060547 26.96850586 79.37060547 26.94262695 81.87107849 C25.82223081 84.74593707 24.58968276 86.21500629 22.38256836 88.36303711 C21.62508301 89.11053726 20.86759766 89.85803741 20.0871582 90.62818909 C19.26425293 91.42103806 18.44134766 92.21388702 17.59350586 93.03076172 C16.75384277 93.85764999 15.91417969 94.68453827 15.04907227 95.53648376 C12.36488458 98.17841146 9.66801841 100.80684482 6.96850586 103.43310547 C4.26988316 106.06378241 1.5743817 108.69732178 -1.11206055 111.34043884 C-2.78407937 112.98511409 -4.46326031 114.62254559 -6.15014648 116.25196838 C-6.90763184 116.99631638 -7.66511719 117.74066437 -8.44555664 118.50756836 C-9.11538574 119.15867081 -9.78521484 119.80977325 -10.4753418 120.48060608 C-12.12112982 122.47947101 -12.63429386 123.83869533 -13.03149414 126.37060547 C-8.81827996 126.57084963 -4.60769884 126.71464994 -0.39111328 126.81005859 C1.03776364 126.84988792 2.46632323 126.9041785 3.89404297 126.97412109 C13.11198015 127.4138403 19.33208865 126.66549096 26.68164062 120.45166016 C27.43630615 119.76491211 28.19097168 119.07816406 28.96850586 118.37060547 C30.12809267 117.46137537 31.29486127 116.56113435 32.47241211 115.67529297 C33.48174805 114.87349609 34.49108398 114.07169922 35.53100586 113.24560547 C36.72466714 112.30115362 37.91869641 111.35716673 39.11303711 110.41357422 C39.7351709 109.92163574 40.35730469 109.42969727 40.99829102 108.92285156 C45.31169342 105.52451049 49.64991255 102.15771405 53.99389648 98.79858398 C57.96125104 95.72742348 61.90044448 92.62844878 65.80053711 89.47216797 C66.98921387 88.52047729 66.98921387 88.52047729 68.2019043 87.54956055 C69.70691804 86.34349869 71.20428069 85.12779824 72.69213867 83.90063477 C73.72806152 83.07559448 73.72806152 83.07559448 74.78491211 82.23388672 C75.37731689 81.75218018 75.96972168 81.27047363 76.58007812 80.77416992 C84.82785227 75.92734854 93.19657173 75.96305916 102.50231361 76.02104568 C104.93655801 76.0349087 107.36999877 76.02827664 109.804245 76.01620483 C116.71786087 75.98539976 123.63128003 75.99019855 130.54492188 76.01025391 C134.78950531 76.02116227 139.03347676 76.00801291 143.27797508 75.98035812 C144.89070441 75.97491987 146.50349507 75.97897574 148.1161747 75.99275589 C150.36621913 76.01177958 152.61424878 76.00042732 154.86425781 75.98242188 C156.14283157 75.98480865 157.42140533 75.98719543 158.73872375 75.98965454 C162.12794917 75.64351888 162.12794917 75.64351888 164.41642761 73.02377319 C166.2367412 70.44213804 166.2367412 70.44213804 165.90600586 67.30810547 C164.93074301 64.25228186 164.22517987 62.63210143 161.96850586 60.37060547 C159.00014722 59.88652613 159.00014722 59.88652613 155.78100586 60.12060547 C154.15098633 60.17474609 154.15098633 60.17474609 152.48803711 60.22998047 C151.6565918 60.27638672 150.82514648 60.32279297 149.96850586 60.37060547 C149.96850586 59.05060547 149.96850586 57.73060547 149.96850586 56.37060547 C152.60850586 56.37060547 155.24850586 56.37060547 157.96850586 56.37060547 C154.83892847 51.54584033 151.47648474 49.57955446 145.96850586 48.37060547 C140.36286057 47.93634949 134.77397037 47.97363173 129.15454102 48.00170898 C127.44546773 47.99923856 125.73639595 47.99539769 124.02732849 47.99029541 C120.35784468 47.98198003 116.6885162 47.98274579 113.01903152 47.99048042 C107.2103182 48.00209886 101.40180314 47.98987098 95.59310913 47.97386169 C81.16614974 47.93772752 66.73919538 47.93143537 52.31219482 47.93395996 C41.09632556 47.93567313 29.88061909 47.92849527 18.66479528 47.8939814 C12.89704446 47.87723184 7.1296915 47.87894371 1.36194253 47.89480412 C-2.23428234 47.90062071 -5.83032049 47.88982586 -9.42651176 47.8745575 C-11.08647639 47.8708465 -12.74647295 47.873895 -14.40640831 47.88442802 C-24.57661614 47.94463221 -33.69795938 47.75017466 -41.91430664 41.00341797 C-42.65422852 40.17583984 -43.39415039 39.34826172 -44.15649414 38.49560547 C-44.99180664 37.62419922 -45.82711914 36.75279297 -46.68774414 35.85498047 C-48.08857691 34.37009773 -49.48573713 32.88171683 -50.87524414 31.38623047 C-56.02323357 26.64466126 -61.07515001 26.85919678 -67.7487793 27.06347656 C-69.51074524 27.14559326 -71.27139121 27.25525892 -73.03149414 27.37060547 Z " fill="#E75444" transform="translate(355.031494140625,247.62939453125)"/>
<path d="M0 0 C3.983314 -0.12467036 7.96585506 -0.21483313 11.95068359 -0.2746582 C13.96362253 -0.31182827 15.97601837 -0.3753997 17.98828125 -0.43945312 C25.85110423 -0.53823231 30.96710985 -0.17604241 37 5 C37.9286084 5.71917603 37.9286084 5.71917603 38.87597656 6.45288086 C40.82534553 7.97361752 42.72660056 9.54121289 44.625 11.125 C46.02920386 12.28085244 47.43416575 13.43578453 48.83984375 14.58984375 C49.88567627 15.45005127 49.88567627 15.45005127 50.95263672 16.32763672 C54.00179196 18.81830133 57.08878903 21.25892246 60.1875 23.6875 C60.74920898 24.12835938 61.31091797 24.56921875 61.88964844 25.0234375 C64.83213008 27.32580628 67.78949958 29.60723943 70.76171875 31.87109375 C71.36798096 32.33362549 71.97424316 32.79615723 72.59887695 33.27270508 C73.76045949 34.15710448 74.92427621 35.03857911 76.09057617 35.91674805 C77.41158611 36.92142776 78.70864553 37.95747795 80 39 C80 39.33 80 39.66 80 40 C73.82535087 40.12372902 67.65142544 40.21440144 61.47583008 40.2746582 C59.3757673 40.29978051 57.27579177 40.33388458 55.17602539 40.37719727 C52.1548916 40.43794871 49.13491504 40.46623263 46.11328125 40.48828125 C45.17664139 40.51408768 44.24000153 40.5398941 43.27497864 40.56648254 C36.7232147 40.56929255 36.7232147 40.56929255 33.18383789 37.78320312 C32.46317139 36.86474609 31.74250488 35.94628906 31 35 C29.31556423 33.32635976 27.63065022 31.65320074 25.9453125 29.98046875 C24.49911726 28.54165542 23.05340855 27.10235519 21.60791016 25.6628418 C20.623788 24.68374233 19.63876938 23.70554305 18.65283203 22.72827148 C13.36722469 17.48769689 8.16193783 12.22478911 3.33544922 6.55200195 C2.27608181 5.32085047 1.14847579 4.14847579 0 3 C0 2.01 0 1.02 0 0 Z " fill="#FEFBFB" transform="translate(343,252)"/>
<path d="M0 0 C2.6875 1.875 2.6875 1.875 5.125 4.875 C8.06792752 8.32037855 10.55023971 9.18944951 14.6875 10.875 C18.14713472 14.54382193 18.24984712 17.52847362 18.11328125 22.39453125 C17.41617414 26.45565982 15.71339869 28.13058026 12.6875 30.875 C6.60335607 32.90304798 -0.4314758 32.22327257 -6.81689453 32.2800293 C-8.64032956 32.30159402 -10.46366149 32.33567919 -12.28662109 32.38256836 C-14.9259222 32.44978275 -17.56308724 32.47706089 -20.203125 32.49609375 C-21.41443085 32.53783974 -21.41443085 32.53783974 -22.65020752 32.58042908 C-28.18080837 32.56051637 -30.98128919 31.18637108 -34.99964905 27.39454651 C-37.33565052 24.69076443 -37.45632581 22.50103452 -37.58984375 19.05859375 C-37.14520262 15.55782767 -35.60128192 13.4816683 -33.3125 10.875 C-30.3125 8.875 -30.3125 8.875 -27 8.6875 C-22.49492918 7.69485728 -21.38627738 6.17857165 -18.76953125 2.56640625 C-14.0890933 -2.86691716 -6.23517527 -2.1176067 0 0 Z " fill="#FEFCFC" transform="translate(477.3125,367.125)"/>
<path d="M0 0 C3.63467079 1.62400184 4.77408696 2.66113044 7 6 C8.99180409 7.01622658 10.99152635 8.01712992 13 9 C14.59745879 12.19491759 14.50816842 15.53209389 14 19 C11.79259319 21.96858157 10.51402627 22.82865791 7 24 C2.87929884 24.25975767 -1.24698813 24.23140535 -5.375 24.25 C-7.08042969 24.2809375 -7.08042969 24.2809375 -8.8203125 24.3125 C-9.91859375 24.31765625 -11.016875 24.3228125 -12.1484375 24.328125 C-13.15052246 24.3374707 -14.15260742 24.34681641 -15.18505859 24.35644531 C-19.1210395 23.85804704 -21.91390466 22.38230316 -24.375 19.25 C-25.32835544 15.81792041 -24.91654656 13.42177384 -24 10 C-20.96549827 6.88120655 -17.97001933 5.58800773 -14 4 C-13.2575 3.29875 -12.515 2.5975 -11.75 1.875 C-7.8652587 -0.77368725 -4.57363101 -0.69725046 0 0 Z " fill="#E75443" transform="translate(527,240)"/>
<path d="M0 0 C2.6875 1.875 2.6875 1.875 5.125 4.875 C8.06792752 8.32037855 10.55023971 9.18944951 14.6875 10.875 C18.14713472 14.54382193 18.24984712 17.52847362 18.11328125 22.39453125 C17.41617414 26.45565982 15.71339869 28.13058026 12.6875 30.875 C6.60335607 32.90304798 -0.4314758 32.22327257 -6.81689453 32.2800293 C-8.64032956 32.30159402 -10.46366149 32.33567919 -12.28662109 32.38256836 C-14.9259222 32.44978275 -17.56308724 32.47706089 -20.203125 32.49609375 C-21.41443085 32.53783974 -21.41443085 32.53783974 -22.65020752 32.58042908 C-28.18080837 32.56051637 -30.98128919 31.18637108 -34.99964905 27.39454651 C-37.33565052 24.69076443 -37.45632581 22.50103452 -37.58984375 19.05859375 C-37.14520262 15.55782767 -35.60128192 13.4816683 -33.3125 10.875 C-30.3125 8.875 -30.3125 8.875 -27 8.6875 C-22.49492918 7.69485728 -21.38627738 6.17857165 -18.76953125 2.56640625 C-14.0890933 -2.86691716 -6.23517527 -2.1176067 0 0 Z M-19.3125 8.875 C-19.6425 9.865 -19.9725 10.855 -20.3125 11.875 C-20.99957031 11.96136719 -21.68664062 12.04773438 -22.39453125 12.13671875 C-28.05902348 12.89835043 -28.05902348 12.89835043 -32.5 16.1875 C-33.45597263 19.3495633 -33.49752127 20.79394469 -32.3125 23.875 C-30.81664405 26.14668978 -30.81664405 26.14668978 -28.3125 27.875 C-25.41290291 28.27295079 -22.90096233 28.43659574 -20.00390625 28.40625 C-19.20017075 28.4100769 -18.39643524 28.41390381 -17.56834412 28.41784668 C-15.87131495 28.42056418 -14.17424379 28.41321418 -12.47729492 28.39648438 C-9.88690178 28.37509826 -7.29929065 28.39627471 -4.70898438 28.421875 C-3.05728557 28.41923114 -1.40558849 28.41410497 0.24609375 28.40625 C1.40255653 28.41839539 1.40255653 28.41839539 2.5823822 28.43078613 C6.32580043 28.36590536 8.49022456 28.00082756 11.67578125 25.96899414 C13.79056936 24.08137034 13.79056936 24.08137034 14.31640625 21.83984375 C14.19350955 17.51572858 14.19350955 17.51572858 12 13.9375 C9.72681435 12.75229733 9.72681435 12.75229733 7.1875 12.5625 C3.49061832 11.54585754 2.70436728 9.02635513 0.6875 5.875 C-2.6976544 3.054038 -5.80856955 2.23124621 -10.24609375 2.3828125 C-14.09123555 3.29866858 -16.81593318 5.90082909 -19.3125 8.875 Z " fill="#E65140" transform="translate(477.3125,367.125)"/>
<path d="M0 0 C3.8677 0.70321818 5.13495714 1.49354171 7.4375 4.625 C7.4375 5.285 7.4375 5.945 7.4375 6.625 C8.406875 6.769375 9.37625 6.91375 10.375 7.0625 C13.4375 7.625 13.4375 7.625 14.4375 8.625 C14.72514381 11.35761615 14.89607549 12.98774639 13.25952148 15.26196289 C9.46671436 18.09932617 4.04967934 17.09178407 -0.5 17.0625 C-2.14645508 17.0924707 -2.14645508 17.0924707 -3.82617188 17.12304688 C-4.88255859 17.12240234 -5.93894531 17.12175781 -7.02734375 17.12109375 C-8.47548462 17.12387329 -8.47548462 17.12387329 -9.95288086 17.12670898 C-13.24484612 16.49381642 -14.44215512 15.14907106 -16.5625 12.625 C-15.9375 10.1875 -15.9375 10.1875 -14.5625 7.625 C-13.634375 7.480625 -12.70625 7.33625 -11.75 7.1875 C-8.25601925 6.93371615 -8.25601925 6.93371615 -6.125 3.5625 C-3.5625 0.625 -3.5625 0.625 0 0 Z " fill="#FDF5F4" transform="translate(522.5625,243.375)"/>
<path d="M0 0 C1.56047445 0.00015913 3.12095416 0.00585397 4.68139648 0.01586914 C5.91115456 0.01799156 5.91115456 0.01799156 7.16575623 0.02015686 C9.79470406 0.0257725 12.42356797 0.0383276 15.05249023 0.05102539 C16.8304838 0.05603838 18.60847869 0.06060163 20.38647461 0.06469727 C24.75434569 0.07574701 29.12215371 0.09302208 33.48999023 0.11352539 C34.14999023 1.43352539 34.80999023 2.75352539 35.48999023 4.11352539 C34.48999023 5.11352539 34.48999023 5.11352539 30.88818359 5.22705078 C29.28539167 5.22689164 27.68259463 5.22119602 26.07983398 5.21118164 C25.23779922 5.20976669 24.39576447 5.20835175 23.5282135 5.20689392 C20.82793689 5.20127802 18.12774196 5.18872287 15.42749023 5.17602539 C13.60131955 5.17101244 11.77514758 5.16644918 9.94897461 5.16235352 C5.46261481 5.15130343 0.97631639 5.13402818 -3.51000977 5.11352539 C-4.07250977 3.17602539 -4.07250977 3.17602539 -4.51000977 1.11352539 C-3.51000977 0.11352539 -3.51000977 0.11352539 0 0 Z " fill="#E75747" transform="translate(289.510009765625,372.886474609375)"/>
<path d="M0 0 C1.47583955 0.0001591 2.95168467 0.00585225 4.42749023 0.01586914 C5.20293686 0.01728409 5.97838348 0.01869904 6.77732849 0.02015686 C9.26361893 0.02577194 11.74982059 0.03832693 14.23608398 0.05102539 C15.91772331 0.05603845 17.59936405 0.06060169 19.28100586 0.06469727 C23.41189965 0.07574626 27.54272674 0.09302094 31.67358398 0.11352539 C32.23608398 2.05102539 32.23608398 2.05102539 32.67358398 4.11352539 C31.67358398 5.11352539 31.67358398 5.11352539 28.34716797 5.22705078 C26.87132842 5.22689168 25.3954833 5.22119853 23.91967773 5.21118164 C23.14423111 5.20976669 22.36878448 5.20835175 21.56983948 5.20689392 C19.08354904 5.20127884 16.59734738 5.18872385 14.11108398 5.17602539 C12.42944466 5.17101233 10.74780392 5.16644909 9.06616211 5.16235352 C4.93526832 5.15130452 0.80444122 5.13402984 -3.32641602 5.11352539 C-3.88891602 3.17602539 -3.88891602 3.17602539 -4.32641602 1.11352539 C-3.32641602 0.11352539 -3.32641602 0.11352539 0 0 Z " fill="#E75545" transform="translate(251.326416015625,248.886474609375)"/>
<path d="M0 0 C11.55 0 23.1 0 35 0 C34.67 1.32 34.34 2.64 34 4 C23.11 4 12.22 4 1 4 C0.67 2.68 0.34 1.36 0 0 Z " fill="#E65140" transform="translate(462,304)"/>
<path d="M0 0 C0.83265381 0.00523682 1.66530762 0.01047363 2.52319336 0.01586914 C3.42231445 0.0190918 4.32143555 0.02231445 5.24780273 0.02563477 C6.66609375 0.03820312 6.66609375 0.03820312 8.11303711 0.05102539 C9.06243164 0.05553711 10.01182617 0.06004883 10.98999023 0.06469727 C13.34356776 0.07652429 15.69702188 0.09300514 18.05053711 0.11352539 C18.38053711 1.76352539 18.71053711 3.41352539 19.05053711 5.11352539 C11.79053711 5.11352539 4.53053711 5.11352539 -2.94946289 5.11352539 C-2.94946289 0.17175958 -2.94946289 0.17175958 0 0 Z " fill="#E7594A" transform="translate(304.949462890625,248.886474609375)"/>
<path d="M0 0 C1.79244141 0.01740234 1.79244141 0.01740234 3.62109375 0.03515625 C5.41740234 0.04869141 5.41740234 0.04869141 7.25 0.0625 C8.17683594 0.07410156 9.10367187 0.08570313 10.05859375 0.09765625 C10.62109375 2.03515625 10.62109375 2.03515625 11.05859375 4.09765625 C10.05859375 5.09765625 10.05859375 5.09765625 7.1171875 5.1953125 C5.32474609 5.17791016 5.32474609 5.17791016 3.49609375 5.16015625 C1.69978516 5.14662109 1.69978516 5.14662109 -0.1328125 5.1328125 C-1.05964844 5.12121094 -1.98648438 5.10960937 -2.94140625 5.09765625 C-3.50390625 3.16015625 -3.50390625 3.16015625 -3.94140625 1.09765625 C-2.94140625 0.09765625 -2.94140625 0.09765625 0 0 Z " fill="#E75848" transform="translate(257.94140625,372.90234375)"/>
</svg>
