<?xml version="1.0" encoding="UTF-8"?>
<svg version="1.1" xmlns="http://www.w3.org/2000/svg" width="800" height="600">
<path d="M0 0 C264 0 528 0 800 0 C800 198 800 396 800 600 C536 600 272 600 0 600 C0 402 0 204 0 0 Z " fill="#FEFEFE" transform="translate(0,0)"/>
<path d="M0 0 C2.98923997 0.03434508 5.9755214 0.02061595 8.96484375 0.0012207 C10.89193948 0.00812007 12.81902768 0.01779327 14.74609375 0.03051758 C15.62555664 0.02555771 16.50501953 0.02059784 17.41113281 0.01548767 C24.71837296 0.15196899 31.47153606 1.93031768 37.37109375 6.39379883 C37.90734375 7.03833008 38.44359375 7.68286133 38.99609375 8.34692383 C39.66382813 9.11520508 40.3315625 9.88348633 41.01953125 10.67504883 C42.66923564 13.11374228 43.61636416 15.010347 44.66015625 17.70629883 C46.68514472 22.47523175 48.54091447 26.68925098 52.99609375 29.59692383 C60.51713037 31.35236432 68.15350474 30.85660163 75.80859375 30.55004883 C84.47634919 30.29558261 91.96856733 32.65822907 98.3984375 38.63208008 C103.83276529 45.31537317 108.24356103 54.64757822 107.80859375 63.34692383 C106.97034454 66.69992068 106.7143563 67.63585775 103.99609375 69.59692383 C101.26879883 69.9375 101.26879883 69.9375 98.015625 69.88989258 C96.85224609 69.88022461 95.68886719 69.87055664 94.49023438 69.8605957 C92.66782227 69.82289063 92.66782227 69.82289063 90.80859375 69.78442383 C89.58205078 69.77088867 88.35550781 69.75735352 87.09179688 69.7434082 C84.05945711 69.70801124 81.02799379 69.65863143 77.99609375 69.59692383 C77.55136719 70.9987793 77.55136719 70.9987793 77.09765625 72.42895508 C75.67329836 76.52524674 74.12043866 79.43987322 70.203125 81.57348633 C65.0270348 83.71600722 59.921106 84.79692886 54.55859375 82.59692383 C54.04296875 82.26692383 53.52734375 81.93692383 52.99609375 81.59692383 C52.33609375 82.25692383 51.67609375 82.91692383 50.99609375 83.59692383 C48.19873047 83.82397461 48.19873047 83.82397461 44.67578125 83.79223633 C42.79052734 83.78256836 42.79052734 83.78256836 40.8671875 83.77270508 C39.54847656 83.75594727 38.22976563 83.73918945 36.87109375 83.72192383 C35.53125654 83.71189365 34.19141223 83.70276787 32.8515625 83.69458008 C29.56622802 83.67094458 26.2812491 83.63799617 22.99609375 83.59692383 C22.43359375 81.65942383 22.43359375 81.65942383 21.99609375 79.59692383 C23.7411599 77.85185768 26.18648518 78.36409599 28.5625 78.28051758 C29.68720703 78.23862305 30.81191406 78.19672852 31.97070312 78.15356445 C33.15470703 78.11424805 34.33871094 78.07493164 35.55859375 78.03442383 C36.74646484 77.99124023 37.93433594 77.94805664 39.15820312 77.90356445 C42.10404159 77.79708836 45.04996805 77.69507542 47.99609375 77.59692383 C47.50109375 76.64817383 47.00609375 75.69942383 46.49609375 74.72192383 C44.99609375 71.59692383 44.99609375 71.59692383 44.99609375 69.59692383 C25.85609375 69.59692383 6.71609375 69.59692383 -13.00390625 69.59692383 C-13.33390625 71.24692383 -13.66390625 72.89692383 -14.00390625 74.59692383 C-17.31669163 79.46866704 -20.31772636 81.784467 -26.00390625 83.59692383 C-28.79641965 83.83980407 -31.345602 83.95071373 -34.125 83.88989258 C-34.86976089 83.88564774 -35.61452179 83.88140289 -36.3818512 83.87702942 C-38.73542098 83.86038107 -41.08810004 83.82275757 -43.44140625 83.78442383 C-45.04751358 83.76935898 -46.65363448 83.75567374 -48.25976562 83.7434082 C-52.17481672 83.71052335 -56.08921104 83.65884009 -60.00390625 83.59692383 C-60.00390625 82.27692383 -60.00390625 80.95692383 -60.00390625 79.59692383 C-54.06390625 79.26692383 -48.12390625 78.93692383 -42.00390625 78.59692383 C-43.98390625 75.13192383 -43.98390625 75.13192383 -46.00390625 71.59692383 C-46.00390625 70.93692383 -46.00390625 70.27692383 -46.00390625 69.59692383 C-47.1125 69.64333008 -48.22109375 69.68973633 -49.36328125 69.73754883 C-50.82679593 69.77507485 -52.29033981 69.81147412 -53.75390625 69.84692383 C-54.48351562 69.88043945 -55.213125 69.91395508 -55.96484375 69.94848633 C-59.37861637 70.01055492 -61.59938612 69.85069112 -64.51953125 68.01879883 C-66.90721024 64.12311206 -66.53223438 60.81118116 -65.49023438 56.4440918 C-64.81075519 54.1138008 -64.0495166 51.82754115 -63.25390625 49.53442383 C-63.00125 48.75776367 -62.74859375 47.98110352 -62.48828125 47.1809082 C-60.18474242 40.37970982 -57.59121018 35.12214915 -51.17578125 31.35864258 C-47.84586228 30.19077531 -44.50973366 29.96423562 -41.00390625 29.59692383 C-40.64039063 28.53473633 -40.276875 27.47254883 -39.90234375 26.37817383 C-32.98197143 6.68119217 -32.98197143 6.68119217 -22.49121094 1.63330078 C-15.21083166 -0.53032356 -7.53617492 -0.09593521 0 0 Z " fill="#E65242" transform="translate(386.00390625,292.403076171875)"/>
<path d="M0 0 C11.88 0 23.76 0 36 0 C36.495 8.91 36.495 8.91 37 18 C37.99 18 38.98 18 40 18 C40.33 12.06 40.66 6.12 41 0 C49.84089972 -0.27193114 58.67899165 -0.49169928 67.523139 -0.62174606 C71.63070331 -0.68418818 75.735242 -0.7687407 79.84106445 -0.90527344 C83.80952289 -1.03640099 87.77508784 -1.10755077 91.74554634 -1.13852692 C93.2541314 -1.16057463 94.76257073 -1.20363903 96.26991081 -1.26876068 C101.04080327 -1.46653674 105.38270792 -1.41242563 110 0 C113.13426625 2.91230072 114.98212338 5.45546522 117.18385315 9.11102295 C120.77009964 14.81572893 126.6135589 17.36941929 133 19 C135.32694964 19.37531446 137.65976685 19.71917202 140 20 C141.16461426 23.49384279 141.13568319 26.33655389 141 30 C140 31 140 31 137.68334961 31.11352539 C136.68311768 31.10828857 135.68288574 31.10305176 134.65234375 31.09765625 C133.57275391 31.09443359 132.49316406 31.09121094 131.38085938 31.08789062 C130.24455078 31.07951172 129.10824219 31.07113281 127.9375 31.0625 C126.79732422 31.05798828 125.65714844 31.05347656 124.48242188 31.04882812 C121.65489649 31.03699747 118.8274736 31.0205141 116 31 C115.7424292 30.307854 115.4848584 29.61570801 115.21948242 28.90258789 C114.87248291 27.99758545 114.5254834 27.09258301 114.16796875 26.16015625 C113.82789795 25.26176025 113.48782715 24.36336426 113.13745117 23.43774414 C111.44716564 19.81518544 109.63756783 18.57856717 106 17 C100.52218221 15.55686433 95.92618126 15.69560191 90.72265625 17.9921875 C85.32804794 21.14821685 84.69675957 25.06134149 83 31 C63.86 31 44.72 31 25 31 C24.01 28.03 23.02 25.06 22 22 C18.7700785 18.59548815 15.57965095 16.96877232 11 16 C5.07715719 15.90412665 0.40086056 16.80383063 -4 21 C-5.63460309 24.24374508 -6.88000939 27.54779365 -8 31 C-10.31243792 31.02685412 -12.6249627 31.04632841 -14.9375 31.0625 C-16.22527344 31.07410156 -17.51304687 31.08570313 -18.83984375 31.09765625 C-22 31 -22 31 -23 30 C-23.42930944 24.74095939 -23.298701 19.32584143 -20 15 C-17.55485654 13.92203353 -15.1767149 13.35820327 -12.57421875 12.76171875 C-8.52728586 11.56421964 -5.65922996 9.23763011 -3 6 C-2.01 4.02 -1.02 2.04 0 0 Z " fill="#FEFCFB" transform="translate(348,327)"/>
<path d="M0 0 C3.22609233 1.90333462 5.16925842 3.40069443 7.04296875 6.6796875 C8.79399829 9.45215094 9.46492168 9.54602502 12.48046875 10.4921875 C15.72146902 11.56655223 16.5884436 12.10357297 19.04296875 14.7421875 C20.86485273 18.76551462 21.38259475 21.71806248 20.54296875 26.0546875 C18.39098063 30.61690232 16.24551033 32.57761479 11.58596802 34.4524231 C7.86635885 35.54894243 4.17316889 35.50207466 0.3203125 35.48828125 C-0.54339462 35.4935231 -1.40710175 35.49876495 -2.29698181 35.50416565 C-4.11309743 35.51055735 -5.92925461 35.50928602 -7.74536133 35.50073242 C-10.51523638 35.49220073 -13.28306142 35.52105712 -16.05273438 35.55273438 C-17.82421814 35.55434617 -19.59570553 35.55376927 -21.3671875 35.55078125 C-22.18921158 35.56201523 -23.01123566 35.57324921 -23.85816956 35.58482361 C-29.19962138 35.52039961 -32.19386085 34.5537317 -36.45703125 31.0546875 C-39.19995498 28.16067051 -39.90755495 26.15016072 -39.95703125 22.1796875 C-39.85122762 18.59294456 -39.46007981 16.37795206 -37.20703125 13.5546875 C-33.85644052 10.50869593 -32.1080463 9.16236239 -27.58203125 8.8671875 C-23.57060807 7.82421747 -22.35161139 5.99678888 -19.94921875 2.74609375 C-15.18182828 -2.65778079 -6.32219716 -2.43238746 0 0 Z " fill="#FEFDFD" transform="translate(419.45703125,234.9453125)"/>
<path d="M0 0 C3.135 -0.061875 6.27 -0.12375 9.5 -0.1875 C10.95696289 -0.22846802 10.95696289 -0.22846802 12.44335938 -0.27026367 C19.4997068 -0.33700902 24.69202145 0.91737807 30.66796875 4.6796875 C33.82994195 7.82577139 36.01549794 11.32048399 38.3125 15.125 C38.76689453 15.85332031 39.22128906 16.58164062 39.68945312 17.33203125 C43 22.71851504 43 22.71851504 43 25 C28.81 25 14.62 25 0 25 C0 16.75 0 8.5 0 0 Z " fill="#FEFCFC" transform="translate(389,297)"/>
<path d="M0 0 C0 8.25 0 16.5 0 25 C-11.22 25 -22.44 25 -34 25 C-27.42033256 6.57693117 -27.42033256 6.57693117 -20.265625 1.85546875 C-13.96421252 -1.09326914 -6.7667473 -0.19519463 0 0 Z " fill="#FEFCFC" transform="translate(384,297)"/>
<path d="M0 0 C3.22609233 1.90333462 5.16925842 3.40069443 7.04296875 6.6796875 C8.79399829 9.45215094 9.46492168 9.54602502 12.48046875 10.4921875 C15.72146902 11.56655223 16.5884436 12.10357297 19.04296875 14.7421875 C20.86485273 18.76551462 21.38259475 21.71806248 20.54296875 26.0546875 C18.39098063 30.61690232 16.24551033 32.57761479 11.58596802 34.4524231 C7.86635885 35.54894243 4.17316889 35.50207466 0.3203125 35.48828125 C-0.54339462 35.4935231 -1.40710175 35.49876495 -2.29698181 35.50416565 C-4.11309743 35.51055735 -5.92925461 35.50928602 -7.74536133 35.50073242 C-10.51523638 35.49220073 -13.28306142 35.52105712 -16.05273438 35.55273438 C-17.82421814 35.55434617 -19.59570553 35.55376927 -21.3671875 35.55078125 C-22.18921158 35.56201523 -23.01123566 35.57324921 -23.85816956 35.58482361 C-29.19962138 35.52039961 -32.19386085 34.5537317 -36.45703125 31.0546875 C-39.19995498 28.16067051 -39.90755495 26.15016072 -39.95703125 22.1796875 C-39.85122762 18.59294456 -39.46007981 16.37795206 -37.20703125 13.5546875 C-33.85644052 10.50869593 -32.1080463 9.16236239 -27.58203125 8.8671875 C-23.57060807 7.82421747 -22.35161139 5.99678888 -19.94921875 2.74609375 C-15.18182828 -2.65778079 -6.32219716 -2.43238746 0 0 Z M-20.45703125 9.0546875 C-20.75867188 9.77140625 -21.0603125 10.488125 -21.37109375 11.2265625 C-21.72945313 11.82984375 -22.0878125 12.433125 -22.45703125 13.0546875 C-24.48046875 13.5234375 -24.48046875 13.5234375 -26.83203125 13.5546875 C-29.99412463 13.78891664 -31.27846514 13.94145045 -34.01953125 15.6796875 C-36.05727392 19.04639278 -36.00021511 21.1845025 -35.45703125 25.0546875 C-34.13471867 27.90835747 -34.13471867 27.90835747 -31.45703125 30.0546875 C-28.2412834 30.79607638 -25.08871413 30.73163552 -21.80078125 30.68359375 C-20.8614978 30.68600571 -19.92221436 30.68841766 -18.95446777 30.69090271 C-16.97074151 30.68992424 -14.98698795 30.67653055 -13.00341797 30.65161133 C-9.96748066 30.61730558 -6.93445438 30.63095106 -3.8984375 30.65039062 C-1.9700397 30.64349205 -0.0416494 30.63381956 1.88671875 30.62109375 C3.24778748 30.62853355 3.24778748 30.62853355 4.63635254 30.63612366 C9.73317814 30.57289739 9.73317814 30.57289739 14.11328125 28.16015625 C16.53005459 24.6010283 16.31132569 21.18656613 15.54296875 17.0546875 C14.04296875 14.88802083 14.04296875 14.88802083 11.54296875 14.0546875 C10.55296875 13.9721875 9.56296875 13.8896875 8.54296875 13.8046875 C5.54296875 13.0546875 5.54296875 13.0546875 3.48046875 9.6796875 C3.16207031 9.05191406 2.84367187 8.42414063 2.515625 7.77734375 C0.94980232 5.00413973 -0.47997991 4.15490213 -3.45703125 3.0546875 C-10.88107332 1.81734715 -15.67121062 3.12679603 -20.45703125 9.0546875 Z " fill="#E85A4A" transform="translate(419.45703125,234.9453125)"/>
<path d="M0 0 C4.18531174 1.72871572 6.23950002 3.83039478 8 8 C8.54333853 12.89004676 8.52109104 14.99503871 6.25 19.375 C3.66111425 22.39536671 1.77129709 23.69404868 -2.1484375 24.37109375 C-6.28770068 24.49454546 -9.12211901 24.39741725 -12.4375 21.75 C-15.5885381 18.36839813 -16.78147047 16.67539309 -17.375 12.125 C-16.80558393 7.37986605 -14.44116002 4.60128892 -11.3125 1.125 C-7.61367749 -0.67442716 -4.03041366 -0.52633309 0 0 Z " fill="#FEFBFB" transform="translate(361,347)"/>
<path d="M0 0 C3.17211906 1.66953635 5.30009393 4.01376872 7.375 6.9375 C8.25688519 9.84772112 8.36405994 11.96616714 8 15 C5.93504958 18.76115969 3.91274408 22.09650288 0 24 C-4.28941457 24.58052227 -7.85668166 24.47224019 -11.875 22.8125 C-15.69349532 19.55554811 -16.83830479 17.11390034 -17.5625 12.125 C-17.42123781 7.74587198 -15.43191913 5.44833936 -12.5078125 2.34765625 C-8.89682057 -0.87978472 -4.6005551 -0.69588228 0 0 Z " fill="#FEFBFB" transform="translate(452,347)"/>
<path d="M0 0 C8.83145981 1.49153543 14.07919488 4.58018271 19.8984375 11.4140625 C21 13 21 13 21 15 C11.77216082 14.3635973 7.30638267 10.67182428 1.3203125 3.8046875 C0 2 0 2 0 0 Z " fill="#FEF8F8" transform="translate(464,327)"/>
<path d="M0 0 C-1.18147956 4.59464275 -3.45526386 6.43823954 -7.1484375 9.08203125 C-9 10 -9 10 -13 10 C-11.64717831 5.57258356 -9.76701112 3.63690779 -6 1 C-4 0 -4 0 0 0 Z " fill="#FDF4F3" transform="translate(343,327)"/>
<path d="M0 0 C3.3 0 6.6 0 10 0 C10 1.32 10 2.64 10 4 C6.7 4 3.4 4 0 4 C0 2.68 0 1.36 0 0 Z " fill="#E65241" transform="translate(399,335)"/>
<path d="M0 0 C1.98 0.495 1.98 0.495 4 1 C4 2.32 4 3.64 4 5 C2.35 4.67 0.7 4.34 -1 4 C-0.67 2.68 -0.34 1.36 0 0 Z " fill="#E75848" transform="translate(473,371)"/>
</svg>
