<?xml version="1.0" encoding="UTF-8"?>
<svg version="1.1" xmlns="http://www.w3.org/2000/svg" width="800" height="600">
<path d="M0 0 C264 0 528 0 800 0 C800 198 800 396 800 600 C536 600 272 600 0 600 C0 402 0 204 0 0 Z " fill="#FEFEFE" transform="translate(0,0)"/>
<path d="M0 0 C2.66370218 1.85839687 4.31237064 3.8261286 6.265625 6.39453125 C8.44106301 8.65961643 11.06367927 9.65731933 13.88671875 10.94921875 C16.30230854 12.19107293 17.44744683 13.46783797 18.6875 15.875 C19.1825 18.35 19.1825 18.35 19.6875 20.875 C53.8425 21.37 53.8425 21.37 88.6875 21.875 C88.6875 30.785 88.6875 39.695 88.6875 48.875 C92.1215625 48.8440625 92.1215625 48.8440625 95.625 48.8125 C97.97916332 48.79129132 100.33436445 48.80228259 102.6875 48.875 C103.6875 49.875 103.6875 49.875 103.81054783 52.12201023 C103.80962604 53.1239992 103.80870424 54.12598818 103.80775452 55.15834045 C103.80981651 56.87688988 103.80981651 56.87688988 103.81192017 58.63015747 C103.80832489 59.89826263 103.80472961 61.1663678 103.80102539 62.47290039 C103.80074352 63.81293231 103.80090125 65.15296439 103.8014679 66.49299622 C103.80175587 70.14159438 103.7958592 73.79015995 103.78889394 77.43875051 C103.78266034 81.24777516 103.7820566 85.0568005 103.78086853 88.86582947 C103.77775523 96.08357754 103.76954186 103.30131054 103.75951904 110.51905197 C103.74835786 118.73415257 103.74284744 126.94925388 103.73782361 135.16436017 C103.72735925 152.06791551 103.70975983 168.97145616 103.6875 185.875 C104.70396606 185.84672119 104.70396606 185.84672119 105.7409668 185.81787109 C106.63468994 185.80320801 107.52841309 185.78854492 108.44921875 185.7734375 C109.77505981 185.74515869 109.77505981 185.74515869 111.12768555 185.71630859 C115.83225486 186.00796048 118.87880346 188.07548466 122.2265625 191.40625 C125.6875 195.35055866 125.6875 195.35055866 125.6875 197.875 C126.71875 197.895625 127.75 197.91625 128.8125 197.9375 C133.30522577 199.02444978 134.78640231 200.26454619 137.51953125 203.84765625 C139.427453 207.15940002 140.01665061 210.07480664 139.6875 213.875 C138.21319482 218.53070057 136.49530618 221.78115748 132.6875 224.875 C129.11131069 226.0670631 125.8724229 226.01016989 122.15156555 225.99525452 C120.99003355 225.99653615 120.99003355 225.99653615 119.80503625 225.99784368 C117.20243901 225.99949478 114.59990579 225.99398314 111.99731445 225.98852539 C110.13482668 225.98824341 108.27233879 225.98840146 106.40985107 225.9889679 C101.34613094 225.98925546 96.28243437 225.98336534 91.21871972 225.97639394 C85.9296024 225.97015358 80.64048457 225.96955606 75.35136414 225.96836853 C65.33228167 225.96525723 55.31321008 225.95704655 45.29413241 225.94701904 C33.8892027 225.93585166 22.48427248 225.93034587 11.07933867 225.92532361 C-12.38461359 225.91486378 -35.84855619 225.89726822 -59.3125 225.875 C-59.3125 224.555 -59.3125 223.235 -59.3125 221.875 C-56.3425 221.875 -53.3725 221.875 -50.3125 221.875 C-50.3125 215.935 -50.3125 209.995 -50.3125 203.875 C-51.6325 203.7925 -52.9525 203.71 -54.3125 203.625 C-61.9578117 202.76085174 -67.83512326 199.23065726 -73.3125 193.875 C-78.15986083 187.26862457 -80.70501272 181.41143677 -80.6875 173.125 C-80.68733887 172.40981201 -80.68717773 171.69462402 -80.68701172 170.95776367 C-80.57872211 165.94053506 -79.69749934 162.47999881 -77.3125 158.140625 C-76.03561663 155.24768611 -75.78774356 152.57509853 -75.4375 149.4375 C-74.44403913 142.11500827 -72.09357496 135.96990635 -66.24609375 131.18359375 C-61.25286584 127.95592709 -57.10377657 126.69567322 -51.125 126.5625 C-49.49498047 126.50642578 -49.49498047 126.50642578 -47.83203125 126.44921875 C-44.55865325 126.84522119 -42.93691149 127.41668326 -40.0925293 128.90161133 C-39.38178757 129.26901932 -38.67104584 129.63642731 -37.93876648 130.01496887 C-37.40209854 130.29877914 -36.8654306 130.58258942 -36.3125 130.875 C-36.30219254 129.86244644 -36.29188507 128.84989288 -36.28126526 127.80665588 C-36.18370265 118.28555996 -36.08098529 108.7645319 -35.97316074 99.24354649 C-35.91788835 94.34817875 -35.86446159 89.4528051 -35.81518555 84.55737305 C-35.76760549 79.83706724 -35.71526525 75.11683646 -35.65955925 70.3966198 C-35.63910678 68.59163203 -35.62039859 66.78662365 -35.60342598 64.98159981 C-35.57944571 62.46234784 -35.54938289 59.94323902 -35.51782227 57.42407227 C-35.5120668 56.67025772 -35.50631134 55.91644318 -35.50038147 55.13978577 C-35.42655216 49.98905216 -35.42655216 49.98905216 -34.3125 48.875 C-29.64404772 48.73073386 -24.98384047 48.83291585 -20.3125 48.875 C-20.3125 43.595 -20.3125 38.315 -20.3125 32.875 C-21.83875 32.9575 -23.365 33.04 -24.9375 33.125 C-29.8601864 33.125 -32.56297082 32.24957626 -36.3125 28.875 C-38.66031141 25.88687638 -38.73075081 22.65588812 -38.6328125 18.90625 C-38.09893864 15.52070842 -36.50523902 13.43319552 -34.3125 10.875 C-31.83497459 9.16636178 -29.78396902 8.75230531 -26.8125 8.0625 C-22.72710708 6.67638455 -21.85539163 5.23817925 -19.3125 1.875 C-13.3717926 -2.22691702 -6.68479924 -2.27030918 0 0 Z " fill="#FEFCFB" transform="translate(373.3125,178.125)"/>
<path d="M0 0 C2.66370218 1.85839687 4.31237064 3.8261286 6.265625 6.39453125 C8.44106301 8.65961643 11.06367927 9.65731933 13.88671875 10.94921875 C16.30230854 12.19107293 17.44744683 13.46783797 18.6875 15.875 C19.1825 18.35 19.1825 18.35 19.6875 20.875 C53.8425 21.37 53.8425 21.37 88.6875 21.875 C88.6875 30.785 88.6875 39.695 88.6875 48.875 C92.1215625 48.8440625 92.1215625 48.8440625 95.625 48.8125 C97.97916332 48.79129132 100.33436445 48.80228259 102.6875 48.875 C103.6875 49.875 103.6875 49.875 103.81054783 52.12201023 C103.80962604 53.1239992 103.80870424 54.12598818 103.80775452 55.15834045 C103.80981651 56.87688988 103.80981651 56.87688988 103.81192017 58.63015747 C103.80832489 59.89826263 103.80472961 61.1663678 103.80102539 62.47290039 C103.80074352 63.81293231 103.80090125 65.15296439 103.8014679 66.49299622 C103.80175587 70.14159438 103.7958592 73.79015995 103.78889394 77.43875051 C103.78266034 81.24777516 103.7820566 85.0568005 103.78086853 88.86582947 C103.77775523 96.08357754 103.76954186 103.30131054 103.75951904 110.51905197 C103.74835786 118.73415257 103.74284744 126.94925388 103.73782361 135.16436017 C103.72735925 152.06791551 103.70975983 168.97145616 103.6875 185.875 C104.70396606 185.84672119 104.70396606 185.84672119 105.7409668 185.81787109 C106.63468994 185.80320801 107.52841309 185.78854492 108.44921875 185.7734375 C109.77505981 185.74515869 109.77505981 185.74515869 111.12768555 185.71630859 C115.83225486 186.00796048 118.87880346 188.07548466 122.2265625 191.40625 C125.6875 195.35055866 125.6875 195.35055866 125.6875 197.875 C126.71875 197.895625 127.75 197.91625 128.8125 197.9375 C133.30522577 199.02444978 134.78640231 200.26454619 137.51953125 203.84765625 C139.427453 207.15940002 140.01665061 210.07480664 139.6875 213.875 C138.21319482 218.53070057 136.49530618 221.78115748 132.6875 224.875 C129.11131069 226.0670631 125.8724229 226.01016989 122.15156555 225.99525452 C120.99003355 225.99653615 120.99003355 225.99653615 119.80503625 225.99784368 C117.20243901 225.99949478 114.59990579 225.99398314 111.99731445 225.98852539 C110.13482668 225.98824341 108.27233879 225.98840146 106.40985107 225.9889679 C101.34613094 225.98925546 96.28243437 225.98336534 91.21871972 225.97639394 C85.9296024 225.97015358 80.64048457 225.96955606 75.35136414 225.96836853 C65.33228167 225.96525723 55.31321008 225.95704655 45.29413241 225.94701904 C33.8892027 225.93585166 22.48427248 225.93034587 11.07933867 225.92532361 C-12.38461359 225.91486378 -35.84855619 225.89726822 -59.3125 225.875 C-59.3125 224.555 -59.3125 223.235 -59.3125 221.875 C-56.3425 221.875 -53.3725 221.875 -50.3125 221.875 C-50.3125 215.935 -50.3125 209.995 -50.3125 203.875 C-51.6325 203.7925 -52.9525 203.71 -54.3125 203.625 C-61.9578117 202.76085174 -67.83512326 199.23065726 -73.3125 193.875 C-78.15986083 187.26862457 -80.70501272 181.41143677 -80.6875 173.125 C-80.68733887 172.40981201 -80.68717773 171.69462402 -80.68701172 170.95776367 C-80.57872211 165.94053506 -79.69749934 162.47999881 -77.3125 158.140625 C-76.03561663 155.24768611 -75.78774356 152.57509853 -75.4375 149.4375 C-74.44403913 142.11500827 -72.09357496 135.96990635 -66.24609375 131.18359375 C-61.25286584 127.95592709 -57.10377657 126.69567322 -51.125 126.5625 C-49.49498047 126.50642578 -49.49498047 126.50642578 -47.83203125 126.44921875 C-44.55865325 126.84522119 -42.93691149 127.41668326 -40.0925293 128.90161133 C-39.38178757 129.26901932 -38.67104584 129.63642731 -37.93876648 130.01496887 C-37.40209854 130.29877914 -36.8654306 130.58258942 -36.3125 130.875 C-36.30219254 129.86244644 -36.29188507 128.84989288 -36.28126526 127.80665588 C-36.18370265 118.28555996 -36.08098529 108.7645319 -35.97316074 99.24354649 C-35.91788835 94.34817875 -35.86446159 89.4528051 -35.81518555 84.55737305 C-35.76760549 79.83706724 -35.71526525 75.11683646 -35.65955925 70.3966198 C-35.63910678 68.59163203 -35.62039859 66.78662365 -35.60342598 64.98159981 C-35.57944571 62.46234784 -35.54938289 59.94323902 -35.51782227 57.42407227 C-35.5120668 56.67025772 -35.50631134 55.91644318 -35.50038147 55.13978577 C-35.42655216 49.98905216 -35.42655216 49.98905216 -34.3125 48.875 C-29.64404772 48.73073386 -24.98384047 48.83291585 -20.3125 48.875 C-20.3125 43.595 -20.3125 38.315 -20.3125 32.875 C-21.83875 32.9575 -23.365 33.04 -24.9375 33.125 C-29.8601864 33.125 -32.56297082 32.24957626 -36.3125 28.875 C-38.66031141 25.88687638 -38.73075081 22.65588812 -38.6328125 18.90625 C-38.09893864 15.52070842 -36.50523902 13.43319552 -34.3125 10.875 C-31.83497459 9.16636178 -29.78396902 8.75230531 -26.8125 8.0625 C-22.72710708 6.67638455 -21.85539163 5.23817925 -19.3125 1.875 C-13.3717926 -2.22691702 -6.68479924 -2.27030918 0 0 Z M-31.3125 53.875 C-31.395 67.343125 -31.4775 80.81125 -31.5625 94.6875 C-31.59891602 98.92053955 -31.63533203 103.1535791 -31.67285156 107.51489258 C-31.68623953 111.35072443 -31.68623953 111.35072443 -31.6942749 115.18656921 C-31.7003673 116.87862878 -31.71433074 118.57067233 -31.73480225 120.26261902 C-31.84961645 130.26260144 -31.69992211 138.66289623 -27.3125 147.875 C-26.79130585 149.18915642 -26.79130585 149.18915642 -26.25958252 150.52986145 C-25.30250672 152.89974508 -24.15088584 154.86730813 -22.75 157 C-18.22048379 163.90852027 -18.56516539 171.85904123 -19.3125 179.875 C-21.08626798 187.44243403 -24.79659534 193.53106356 -31.3125 197.875 C-31.72928607 200.39396074 -31.72928607 200.39396074 -31.60546875 203.3203125 C-31.59797607 204.28984863 -31.5904834 205.25938477 -31.58276367 206.25830078 C-31.55545166 207.49306152 -31.52813965 208.72782227 -31.5 210 C-31.438125 213.91875 -31.37625 217.8375 -31.3125 221.875 C-16.1325 221.875 -0.9525 221.875 14.6875 221.875 C14.6875 207.355 14.6875 192.835 14.6875 177.875 C33.9925 178.37 33.9925 178.37 53.6875 178.875 C54.0175 193.065 54.3475 207.255 54.6875 221.875 C61.2875 221.875 67.8875 221.875 74.6875 221.875 C73.6975 219.4 73.6975 219.4 72.6875 216.875 C72.00095044 211.83764221 72.14788399 207.95423202 74.4375 203.375 C77.78747612 199.65280431 79.82342186 198.92224922 84.6875 198.625 C86.78537003 198.47370423 86.78537003 198.47370423 88.6875 197.875 C90.95666093 195.09632295 90.95666093 195.09632295 92.6875 191.875 C94.95977054 189.87323785 96.98416103 188.22666948 99.6875 186.875 C99.6875 142.985 99.6875 99.095 99.6875 53.875 C56.4575 53.875 13.2275 53.875 -31.3125 53.875 Z " fill="#E64F3E" transform="translate(373.3125,178.125)"/>
<path d="M0 0 C5.2825609 3.02010952 8.82436224 7.32484644 10.63671875 13.1484375 C11.08852916 15.01313479 11.52988947 16.8803941 11.9609375 18.75 C13.1349366 22.54126316 15.14040724 25.37669246 17.5078125 28.52734375 C20.79987759 33.50486732 20.34524075 39.76162111 19.8125 45.5 C17.86579752 53.59171513 13.75018675 59.33650107 6.7578125 63.81640625 C2.89791908 65.90657495 0.2553351 66.69216415 -4.1875 66.5 C-4.61687113 63.17237378 -4.92027789 59.84445167 -5.1875 56.5 C-5.290625 55.33339844 -5.39375 54.16679687 -5.5 52.96484375 C-5.97563189 43.69993081 -5.97563189 43.69993081 -3.625 40.12109375 C-1.6875 38.25 -1.6875 38.25 0.28125 36.734375 C0.7865625 36.32703125 1.291875 35.9196875 1.8125 35.5 C1.8125 34.84 1.8125 34.18 1.8125 33.5 C-0.57314077 34.07584432 -2.85432784 34.72227595 -5.1875 35.5 C-5.5175 33.19 -5.8475 30.88 -6.1875 28.5 C-7.5075 28.17 -8.8275 27.84 -10.1875 27.5 C-9.8575 35.42 -9.5275 43.34 -9.1875 51.5 C-13.1875 49.5 -13.1875 49.5 -16.1875 46.9375 C-18.77865237 44.8321887 -19.972583 43.87095196 -23.1875 43.5 C-20.94593407 47.80717276 -18.25323666 50.27556733 -14.5 53.3125 C-9.39775421 57.79039202 -9.39775421 57.79039202 -8.46875 60.92578125 C-8.5 63.125 -8.5 63.125 -9.1875 66.5 C-15.26778578 67.27952382 -19.38148063 64.94361736 -24.1875 61.5 C-30.37326356 56.017435 -33.46925002 50.19213113 -34.5 42.0234375 C-34.81417161 35.68109805 -33.15975306 31.0386563 -30.1875 25.5 C-28.94407887 23.01315773 -29.04577498 21.15147992 -28.9375 18.375 C-28.34465769 11.30720811 -25.77292281 6.95615167 -20.6875 2.125 C-14.16019414 -2.11774881 -7.28384571 -3.1535424 0 0 Z " fill="#FEFCFC" transform="translate(331.1875,310.5)"/>
<path d="M0 0 C33 0 66 0 100 0 C100 7.59 100 15.18 100 23 C67 23 34 23 0 23 C0 15.41 0 7.82 0 0 Z " fill="#FEFBFB" transform="translate(358,204)"/>
<path d="M0 0 C2.62654766 1.6752468 3.74185259 3.20472835 5.0625 6 C6.25183047 8.44098393 6.81633842 9.26786491 9.32421875 10.4140625 C10.9209449 10.88202411 12.52121117 11.33809782 14.125 11.78125 C16.1875 12.4375 16.1875 12.4375 18.25 14.125 C19.65456205 17.58958639 19.97883978 20.81172499 19.1875 24.4375 C17.01175584 27.12855198 15.27684144 28.89282928 12.1875 30.4375 C10.76412251 30.54187444 9.33608004 30.58613817 7.90893555 30.59863281 C7.02429123 30.60824036 6.13964691 30.6178479 5.22819519 30.62774658 C3.79072685 30.6341214 3.79072685 30.6341214 2.32421875 30.640625 C0.84801811 30.64917511 0.84801811 30.64917511 -0.65800476 30.65789795 C-2.74359052 30.6673555 -4.82919127 30.67388492 -6.91479492 30.67773438 C-10.10166626 30.68742902 -13.28788979 30.718441 -16.47460938 30.75 C-18.49999617 30.75653108 -20.52538758 30.76178114 -22.55078125 30.765625 C-23.50302078 30.7779718 -24.45526031 30.7903186 -25.43635559 30.80303955 C-30.37211922 30.78647239 -33.82945068 30.70651671 -37.8125 27.4375 C-40.14076375 24.22227863 -40.20961181 21.32919575 -39.8125 17.4375 C-38.56686665 14.69710663 -37.50114555 12.9731132 -35.125 11.125 C-32.8125 10.4375 -32.8125 10.4375 -28.875 10.8125 C-26.7695475 10.97263526 -26.7695475 10.97263526 -24.8125 10.4375 C-23.23591163 8.5758787 -22.22137162 6.63385745 -21.07421875 4.484375 C-16.62724945 -2.72990336 -7.15345328 -3.53843192 0 0 Z " fill="#FEFCFC" transform="translate(488.8125,369.5625)"/>
<path d="M0 0 C10.23 0 20.46 0 31 0 C31 13.2 31 26.4 31 40 C20.77 40 10.54 40 0 40 C0 26.8 0 13.6 0 0 Z " fill="#FEFDFD" transform="translate(392,360)"/>
<path d="M0 0 C3.53866538 1.80271633 5.48858008 3.04689923 7.375 6.5625 C9.50431248 9.75646871 11.57899981 10.23720106 15.16015625 11.32421875 C17 12 17 12 19 14 C19 15.65 19 17.3 19 19 C7.45 19 -4.1 19 -16 19 C-16 21.31 -16 23.62 -16 26 C-20.84435994 26.47493725 -23.9563259 26.72418203 -28.0625 23.875 C-30 21 -30 21 -30.625 18 C-29.7607855 13.85177042 -28.48304057 12.39459039 -25 10 C-22.11169279 9.88254573 -19.8625181 10.36927567 -17 11 C-16.773125 10.0925 -16.54625 9.185 -16.3125 8.25 C-13.39542523 1.02676723 -7.32821374 -0.9825538 0 0 Z " fill="#FEF9F8" transform="translate(369,181)"/>
<path d="M0 0 C1.02802734 -0.01224609 2.05605469 -0.02449219 3.11523438 -0.03710938 C4.58766602 -0.04000977 4.58766602 -0.04000977 6.08984375 -0.04296875 C6.99468506 -0.04707764 7.89952637 -0.05118652 8.83178711 -0.05541992 C11.0625 0.1875 11.0625 0.1875 13.0625 2.1875 C13.30541992 4.05102539 13.30541992 4.05102539 13.29296875 6.28515625 C13.29103516 7.08630859 13.28910156 7.88746094 13.28710938 8.71289062 C13.26874023 9.96875977 13.26874023 9.96875977 13.25 11.25 C13.24935547 12.09111328 13.24871094 12.93222656 13.24804688 13.79882812 C13.20273184 20.04726816 13.20273184 20.04726816 12.0625 21.1875 C10.28178754 21.27476223 8.4976686 21.29449041 6.71484375 21.28515625 C5.63525391 21.28193359 4.55566406 21.27871094 3.44335938 21.27539062 C2.30705078 21.26701172 1.17074219 21.25863281 0 21.25 C-1.14017578 21.24548828 -2.28035156 21.24097656 -3.45507812 21.23632812 C-6.28260351 21.22449747 -9.1100264 21.2080141 -11.9375 21.1875 C-11.96638146 17.87501813 -11.98425799 14.56256833 -12 11.25 C-12.00837891 10.30447266 -12.01675781 9.35894531 -12.02539062 8.38476562 C-12.02861328 7.48564453 -12.03183594 6.58652344 -12.03515625 5.66015625 C-12.04039307 4.82750244 -12.04562988 3.99484863 -12.05102539 3.13696289 C-11.75209249 -1.9963258 -3.84668985 0.00240268 0 0 Z " fill="#E75545" transform="translate(444.9375,244.8125)"/>
<path d="M0 0 C3.81248426 -0.02887236 7.6249407 -0.04675492 11.4375 -0.0625 C12.52611328 -0.07087891 13.61472656 -0.07925781 14.73632812 -0.08789062 C15.77080078 -0.09111328 16.80527344 -0.09433594 17.87109375 -0.09765625 C18.82943115 -0.10289307 19.78776855 -0.10812988 20.77514648 -0.11352539 C23 0 23 0 24 1 C24.09860131 2.40348735 24.13078937 3.81180477 24.1328125 5.21875 C24.13474609 6.49298828 24.13474609 6.49298828 24.13671875 7.79296875 C24.13285156 8.68628906 24.12898438 9.57960937 24.125 10.5 C24.13080078 11.83998047 24.13080078 11.83998047 24.13671875 13.20703125 C24.13542969 14.05652344 24.13414062 14.90601563 24.1328125 15.78125 C24.13168457 16.56564453 24.13055664 17.35003906 24.12939453 18.15820312 C24 20 24 20 23 21 C21.30441274 21.09932153 19.60474253 21.13080007 17.90625 21.1328125 C16.87628906 21.13410156 15.84632813 21.13539063 14.78515625 21.13671875 C13.15900391 21.13091797 13.15900391 21.13091797 11.5 21.125 C10.41589844 21.12886719 9.33179688 21.13273437 8.21484375 21.13671875 C7.18488281 21.13542969 6.15492188 21.13414062 5.09375 21.1328125 C4.14177734 21.13168457 3.18980469 21.13055664 2.20898438 21.12939453 C0 21 0 21 -1 20 C-1.10011296 17.01133358 -1.13873975 14.05089547 -1.125 11.0625 C-1.12886719 10.22525391 -1.13273437 9.38800781 -1.13671875 8.52539062 C-1.13542969 7.72423828 -1.13414062 6.92308594 -1.1328125 6.09765625 C-1.13168457 5.36039307 -1.13055664 4.62312988 -1.12939453 3.86352539 C-1 2 -1 2 0 0 Z " fill="#E75343" transform="translate(396,245)"/>
<path d="M0 0 C1.02802734 -0.01224609 2.05605469 -0.02449219 3.11523438 -0.03710938 C4.58766602 -0.04000977 4.58766602 -0.04000977 6.08984375 -0.04296875 C6.99468506 -0.04707764 7.89952637 -0.05118652 8.83178711 -0.05541992 C11.0625 0.1875 11.0625 0.1875 13.0625 2.1875 C13.30541992 4.05102539 13.30541992 4.05102539 13.29296875 6.28515625 C13.29103516 7.08630859 13.28910156 7.88746094 13.28710938 8.71289062 C13.26874023 9.96875977 13.26874023 9.96875977 13.25 11.25 C13.24935547 12.09111328 13.24871094 12.93222656 13.24804688 13.79882812 C13.20273184 20.04726816 13.20273184 20.04726816 12.0625 21.1875 C10.28178754 21.27476223 8.4976686 21.29449041 6.71484375 21.28515625 C5.63525391 21.28193359 4.55566406 21.27871094 3.44335938 21.27539062 C2.30705078 21.26701172 1.17074219 21.25863281 0 21.25 C-1.14017578 21.24548828 -2.28035156 21.24097656 -3.45507812 21.23632812 C-6.28260351 21.22449747 -9.1100264 21.2080141 -11.9375 21.1875 C-11.96638146 17.87501813 -11.98425799 14.56256833 -12 11.25 C-12.00837891 10.30447266 -12.01675781 9.35894531 -12.02539062 8.38476562 C-12.02861328 7.48564453 -12.03183594 6.58652344 -12.03515625 5.66015625 C-12.04039307 4.82750244 -12.04562988 3.99484863 -12.05102539 3.13696289 C-11.75209249 -1.9963258 -3.84668985 0.00240268 0 0 Z " fill="#E75343" transform="translate(369.9375,244.8125)"/>
<path d="M0 0 C3.97921094 -0.02682614 7.95824341 -0.04675393 11.9375 -0.0625 C13.07380859 -0.07087891 14.21011719 -0.07925781 15.38085938 -0.08789062 C16.46044922 -0.09111328 17.54003906 -0.09433594 18.65234375 -0.09765625 C20.15269165 -0.10551147 20.15269165 -0.10551147 21.68334961 -0.11352539 C24 0 24 0 25 1 C25.0983721 2.33043625 25.13078592 3.66593344 25.1328125 5 C25.13474609 6.2065625 25.13474609 6.2065625 25.13671875 7.4375 C25.13285156 8.283125 25.12898438 9.12875 25.125 10 C25.13080078 11.2684375 25.13080078 11.2684375 25.13671875 12.5625 C25.13542969 13.366875 25.13414062 14.17125 25.1328125 15 C25.13168457 15.7425 25.13055664 16.485 25.12939453 17.25 C25 19 25 19 24 20 C22.21928754 20.08726223 20.4351686 20.10699041 18.65234375 20.09765625 C17.57275391 20.09443359 16.49316406 20.09121094 15.38085938 20.08789062 C14.24455078 20.07951172 13.10824219 20.07113281 11.9375 20.0625 C10.79732422 20.05798828 9.65714844 20.05347656 8.48242188 20.04882812 C5.65492582 20.0369976 2.82745655 20.0190615 0 20 C0 13.4 0 6.8 0 0 Z " fill="#E65040" transform="translate(433,318)"/>
<path d="M0 0 C1.00023193 0.00523682 2.00046387 0.01047363 3.03100586 0.01586914 C4.1105957 0.0190918 5.19018555 0.02231445 6.30249023 0.02563477 C8.00695312 0.03820312 8.00695312 0.03820312 9.74584961 0.05102539 C11.45611328 0.05779297 11.45611328 0.05779297 13.20092773 0.06469727 C16.02842379 0.07652779 18.85589306 0.09446389 21.68334961 0.11352539 C21.68334961 6.71352539 21.68334961 13.31352539 21.68334961 20.11352539 C17.70413866 20.14035153 13.7251062 20.16027932 9.74584961 20.17602539 C8.04138672 20.18859375 8.04138672 20.18859375 6.30249023 20.20141602 C5.22290039 20.20463867 4.14331055 20.20786133 3.03100586 20.21118164 C1.53065796 20.21903687 1.53065796 20.21903687 0 20.22705078 C-2.31665039 20.11352539 -2.31665039 20.11352539 -3.31665039 19.11352539 C-3.41502249 17.78308914 -3.44743631 16.44759195 -3.44946289 15.11352539 C-3.45075195 14.30915039 -3.45204102 13.50477539 -3.45336914 12.67602539 C-3.44950195 11.83040039 -3.44563477 10.98477539 -3.44165039 10.11352539 C-3.44551758 9.26790039 -3.44938477 8.42227539 -3.45336914 7.55102539 C-3.45208008 6.74665039 -3.45079102 5.94227539 -3.44946289 5.11352539 C-3.44833496 4.37102539 -3.44720703 3.62852539 -3.44604492 2.86352539 C-3.24375664 0.12767185 -2.73437973 0.13399585 0 0 Z " fill="#E64E3D" transform="translate(398.316650390625,317.886474609375)"/>
<path d="M0 0 C3.97921094 -0.02682614 7.95824341 -0.04675393 11.9375 -0.0625 C13.07380859 -0.07087891 14.21011719 -0.07925781 15.38085938 -0.08789062 C16.46044922 -0.09111328 17.54003906 -0.09433594 18.65234375 -0.09765625 C20.15269165 -0.10551147 20.15269165 -0.10551147 21.68334961 -0.11352539 C24 0 24 0 25 1 C25.0983721 2.33043625 25.13078592 3.66593344 25.1328125 5 C25.13474609 6.2065625 25.13474609 6.2065625 25.13671875 7.4375 C25.13285156 8.283125 25.12898438 9.12875 25.125 10 C25.13080078 11.2684375 25.13080078 11.2684375 25.13671875 12.5625 C25.13542969 13.366875 25.13414062 14.17125 25.1328125 15 C25.13168457 15.7425 25.13055664 16.485 25.12939453 17.25 C25 19 25 19 24 20 C22.21928754 20.08726223 20.4351686 20.10699041 18.65234375 20.09765625 C17.57275391 20.09443359 16.49316406 20.09121094 15.38085938 20.08789062 C14.24455078 20.07951172 13.10824219 20.07113281 11.9375 20.0625 C10.79732422 20.05798828 9.65714844 20.05347656 8.48242188 20.04882812 C5.65492582 20.0369976 2.82745655 20.0190615 0 20 C0 13.4 0 6.8 0 0 Z " fill="#E64E3E" transform="translate(358,318)"/>
<path d="M0 0 C3.97921094 -0.02682614 7.95824341 -0.04675393 11.9375 -0.0625 C13.07380859 -0.07087891 14.21011719 -0.07925781 15.38085938 -0.08789062 C16.46044922 -0.09111328 17.54003906 -0.09433594 18.65234375 -0.09765625 C20.15269165 -0.10551147 20.15269165 -0.10551147 21.68334961 -0.11352539 C24 0 24 0 25 1 C25.0983721 2.33043625 25.13078592 3.66593344 25.1328125 5 C25.13474609 6.2065625 25.13474609 6.2065625 25.13671875 7.4375 C25.13285156 8.283125 25.12898438 9.12875 25.125 10 C25.13080078 11.2684375 25.13080078 11.2684375 25.13671875 12.5625 C25.13542969 13.366875 25.13414062 14.17125 25.1328125 15 C25.13168457 15.7425 25.13055664 16.485 25.12939453 17.25 C25 19 25 19 24 20 C22.21928754 20.08726223 20.4351686 20.10699041 18.65234375 20.09765625 C17.57275391 20.09443359 16.49316406 20.09121094 15.38085938 20.08789062 C14.24455078 20.07951172 13.10824219 20.07113281 11.9375 20.0625 C10.79732422 20.05798828 9.65714844 20.05347656 8.48242188 20.04882812 C5.65492582 20.0369976 2.82745655 20.0190615 0 20 C0 13.4 0 6.8 0 0 Z " fill="#E65040" transform="translate(433,282)"/>
<path d="M0 0 C1.00023193 0.00523682 2.00046387 0.01047363 3.03100586 0.01586914 C4.1105957 0.0190918 5.19018555 0.02231445 6.30249023 0.02563477 C8.00695312 0.03820312 8.00695312 0.03820312 9.74584961 0.05102539 C11.45611328 0.05779297 11.45611328 0.05779297 13.20092773 0.06469727 C16.02842379 0.07652779 18.85589306 0.09446389 21.68334961 0.11352539 C21.68334961 6.71352539 21.68334961 13.31352539 21.68334961 20.11352539 C17.70413866 20.14035153 13.7251062 20.16027932 9.74584961 20.17602539 C8.04138672 20.18859375 8.04138672 20.18859375 6.30249023 20.20141602 C5.22290039 20.20463867 4.14331055 20.20786133 3.03100586 20.21118164 C1.53065796 20.21903687 1.53065796 20.21903687 0 20.22705078 C-2.31665039 20.11352539 -2.31665039 20.11352539 -3.31665039 19.11352539 C-3.41502249 17.78308914 -3.44743631 16.44759195 -3.44946289 15.11352539 C-3.45075195 14.30915039 -3.45204102 13.50477539 -3.45336914 12.67602539 C-3.44950195 11.83040039 -3.44563477 10.98477539 -3.44165039 10.11352539 C-3.44551758 9.26790039 -3.44938477 8.42227539 -3.45336914 7.55102539 C-3.45208008 6.74665039 -3.45079102 5.94227539 -3.44946289 5.11352539 C-3.44833496 4.37102539 -3.44720703 3.62852539 -3.44604492 2.86352539 C-3.24375664 0.12767185 -2.73437973 0.13399585 0 0 Z " fill="#E64E3D" transform="translate(398.316650390625,281.886474609375)"/>
<path d="M0 0 C3.97921094 -0.02682614 7.95824341 -0.04675393 11.9375 -0.0625 C13.07380859 -0.07087891 14.21011719 -0.07925781 15.38085938 -0.08789062 C16.46044922 -0.09111328 17.54003906 -0.09433594 18.65234375 -0.09765625 C20.15269165 -0.10551147 20.15269165 -0.10551147 21.68334961 -0.11352539 C24 0 24 0 25 1 C25.0983721 2.33043625 25.13078592 3.66593344 25.1328125 5 C25.13474609 6.2065625 25.13474609 6.2065625 25.13671875 7.4375 C25.13285156 8.283125 25.12898438 9.12875 25.125 10 C25.13080078 11.2684375 25.13080078 11.2684375 25.13671875 12.5625 C25.13542969 13.366875 25.13414062 14.17125 25.1328125 15 C25.13168457 15.7425 25.13055664 16.485 25.12939453 17.25 C25 19 25 19 24 20 C22.21928754 20.08726223 20.4351686 20.10699041 18.65234375 20.09765625 C17.57275391 20.09443359 16.49316406 20.09121094 15.38085938 20.08789062 C14.24455078 20.07951172 13.10824219 20.07113281 11.9375 20.0625 C10.79732422 20.05798828 9.65714844 20.05347656 8.48242188 20.04882812 C5.65492582 20.0369976 2.82745655 20.0190615 0 20 C0 13.4 0 6.8 0 0 Z " fill="#E64E3E" transform="translate(358,282)"/>
<path d="M0 0 C0 6.93 0 13.86 0 21 C-3.3 21 -6.6 21 -10 21 C-11 20 -11 20 -11.09765625 16.18359375 C-11.09098089 14.60153318 -11.07901875 13.01948841 -11.0625 11.4375 C-11.05798828 10.63119141 -11.05347656 9.82488281 -11.04882812 8.99414062 C-11.03700518 6.99606244 -11.01906914 4.99802217 -11 3 C-9.54293274 2.49632243 -8.08429904 1.99717444 -6.625 1.5 C-5.81289063 1.2215625 -5.00078125 0.943125 -4.1640625 0.65625 C-2 0 -2 0 0 0 Z " fill="#FDF7F6" transform="translate(338,379)"/>
<path d="M0 0 C5.28 0 10.56 0 16 0 C16 3.96 16 7.92 16 12 C10.72 12 5.44 12 0 12 C0 8.04 0 4.08 0 0 Z " fill="#FEFAF9" transform="translate(437,322)"/>
<path d="M0 0 C5.28 0 10.56 0 16 0 C16 3.96 16 7.92 16 12 C10.72 12 5.44 12 0 12 C0 8.04 0 4.08 0 0 Z " fill="#FDF7F6" transform="translate(400,322)"/>
<path d="M0 0 C5.28 0 10.56 0 16 0 C16 3.96 16 7.92 16 12 C10.72 12 5.44 12 0 12 C0 8.04 0 4.08 0 0 Z " fill="#FEF9F8" transform="translate(362,322)"/>
<path d="M0 0 C5.28 0 10.56 0 16 0 C16 3.96 16 7.92 16 12 C10.72 12 5.44 12 0 12 C0 8.04 0 4.08 0 0 Z " fill="#FEF9F9" transform="translate(437,286)"/>
<path d="M0 0 C5.28 0 10.56 0 16 0 C16 3.96 16 7.92 16 12 C10.72 12 5.44 12 0 12 C0 8.04 0 4.08 0 0 Z " fill="#FDF6F6" transform="translate(400,286)"/>
<path d="M0 0 C5.28 0 10.56 0 16 0 C16 3.96 16 7.92 16 12 C10.72 12 5.44 12 0 12 C0 8.04 0 4.08 0 0 Z " fill="#FEF8F8" transform="translate(362,286)"/>
<path d="M0 0 C5.28 0 10.56 0 16 0 C16 3.96 16 7.92 16 12 C10.72 12 5.44 12 0 12 C0 8.04 0 4.08 0 0 Z " fill="#FEF8F8" transform="translate(437,250)"/>
<path d="M0 0 C5.28 0 10.56 0 16 0 C16 3.96 16 7.92 16 12 C10.72 12 5.44 12 0 12 C0 8.04 0 4.08 0 0 Z " fill="#FDF6F5" transform="translate(400,250)"/>
<path d="M0 0 C5.28 0 10.56 0 16 0 C16 3.96 16 7.92 16 12 C10.72 12 5.44 12 0 12 C0 8.04 0 4.08 0 0 Z " fill="#FEF8F7" transform="translate(362,250)"/>
<path d="M0 0 C10.23 0 20.46 0 31 0 C31 1.32 31 2.64 31 4 C21.1 4 11.2 4 1 4 C0.67 2.68 0.34 1.36 0 0 Z " fill="#E64D3C" transform="translate(418,215)"/>
</svg>
