<?xml version="1.0" encoding="UTF-8"?>
<svg version="1.1" xmlns="http://www.w3.org/2000/svg" width="800" height="600">
<path d="M0 0 C264 0 528 0 800 0 C800 198 800 396 800 600 C536 600 272 600 0 600 C0 402 0 204 0 0 Z " fill="#FEFEFE" transform="translate(0,0)"/>
<path d="M0 0 C3.38554817 1.79655939 5.95497268 3.89043893 7.84765625 7.23046875 C7.84765625 7.89046875 7.84765625 8.55046875 7.84765625 9.23046875 C9.17796875 9.32328125 9.17796875 9.32328125 10.53515625 9.41796875 C14.74051236 10.44947119 16.23777109 11.80033396 18.84765625 15.23046875 C19.34265625 18.69546875 19.34265625 18.69546875 19.84765625 22.23046875 C49.54765625 22.23046875 79.24765625 22.23046875 109.84765625 22.23046875 C109.84765625 31.14046875 109.84765625 40.05046875 109.84765625 49.23046875 C113.28171875 49.19953125 113.28171875 49.19953125 116.78515625 49.16796875 C119.13931957 49.14676007 121.4945207 49.15775134 123.84765625 49.23046875 C124.84765625 50.23046875 124.84765625 50.23046875 124.97070408 52.46186161 C124.96978229 53.45647624 124.96886049 54.45109087 124.96791077 55.47584534 C124.96997276 57.18177353 124.96997276 57.18177353 124.97207642 58.92216492 C124.96848114 60.18091934 124.96488586 61.43967377 124.96118164 62.73657227 C124.96132767 64.05345032 124.96147369 65.37032837 124.96162415 66.72711182 C124.96191212 70.34885143 124.95601549 73.97055821 124.94905019 77.59229016 C124.94281655 81.37328759 124.94221284 85.1542857 124.94102478 88.93528748 C124.93791149 96.09991165 124.92969814 103.26452065 124.91967529 110.42913812 C124.90851407 118.58378037 124.90300368 126.73842332 124.89797986 134.89307129 C124.88751553 151.67221268 124.86991614 168.45133878 124.84765625 185.23046875 C125.52530029 185.28307861 126.20294434 185.33568848 126.90112305 185.38989258 C127.79484619 185.46747803 128.68856934 185.54506348 129.609375 185.625 C130.49326904 185.69823486 131.37716309 185.77146973 132.2878418 185.84692383 C137.59039028 186.64142108 141.28146286 189.35264585 144.78515625 193.35546875 C146.84765625 196.23046875 146.84765625 196.23046875 146.84765625 198.23046875 C147.87890625 198.25109375 148.91015625 198.27171875 149.97265625 198.29296875 C154.46538202 199.37991853 155.94655856 200.62001494 158.6796875 204.203125 C160.58760925 207.51486877 161.17680686 210.43027539 160.84765625 214.23046875 C159.37335107 218.88616932 157.65546243 222.13662623 153.84765625 225.23046875 C150.27146694 226.42253185 147.03257915 226.36563864 143.3117218 226.35072327 C142.1501898 226.3520049 142.1501898 226.3520049 140.9651925 226.35331243 C138.36259526 226.35496353 135.76006204 226.34945189 133.1574707 226.34399414 C131.29498293 226.34371216 129.43249504 226.34387021 127.57000732 226.34443665 C122.50628719 226.34472421 117.44259062 226.33883409 112.37887597 226.33186269 C107.08975865 226.32562233 101.80064082 226.32502481 96.51152039 226.32383728 C86.49243792 226.32072598 76.47336633 226.3125153 66.45428866 226.30248779 C55.04935895 226.29132041 43.64442873 226.28581462 32.23949492 226.28079236 C8.77554266 226.27033253 -14.68839994 226.25273697 -38.15234375 226.23046875 C-38.15234375 224.91046875 -38.15234375 223.59046875 -38.15234375 222.23046875 C-35.18234375 222.23046875 -32.21234375 222.23046875 -29.15234375 222.23046875 C-29.15234375 216.29046875 -29.15234375 210.35046875 -29.15234375 204.23046875 C-30.45171875 204.16859375 -31.75109375 204.10671875 -33.08984375 204.04296875 C-41.08011198 203.12728652 -47.21787904 198.8996621 -52.6484375 193.12890625 C-59.2410246 184.80683526 -60.17001457 175.58416314 -59.15234375 165.23046875 C-58.10701141 162.32850136 -56.81695601 159.74277964 -55.375 157.01953125 C-53.96955886 153.81350897 -53.59401293 151.01536022 -53.21484375 147.54296875 C-52.29883591 140.39301869 -49.767335 136.28636178 -44.30859375 131.671875 C-39.48175973 128.06197583 -35.89357341 127.05002721 -29.96484375 126.91796875 C-28.33482422 126.86189453 -28.33482422 126.86189453 -26.671875 126.8046875 C-23.398497 127.20068994 -21.77675524 127.77215201 -18.93237305 129.25708008 C-18.22163132 129.62448807 -17.51088959 129.99189606 -16.77861023 130.37043762 C-16.24194229 130.65424789 -15.70527435 130.93805817 -15.15234375 131.23046875 C-15.14203629 130.21791519 -15.13172882 129.20536163 -15.12110901 128.16212463 C-15.0235464 118.64102871 -14.92082904 109.12000065 -14.81300449 99.59901524 C-14.7577321 94.7036475 -14.70430534 89.80827385 -14.6550293 84.9128418 C-14.60744924 80.19253599 -14.555109 75.47230521 -14.499403 70.75208855 C-14.47895053 68.94710078 -14.46024234 67.1420924 -14.44326973 65.33706856 C-14.41928946 62.81781659 -14.38922664 60.29870777 -14.35766602 57.77954102 C-14.35191055 57.02572647 -14.34615509 56.27191193 -14.34022522 55.49525452 C-14.26639591 50.34452091 -14.26639591 50.34452091 -13.15234375 49.23046875 C-8.48389147 49.08620261 -3.82368422 49.1883846 0.84765625 49.23046875 C0.84765625 43.95046875 0.84765625 38.67046875 0.84765625 33.23046875 C-2.38724609 33.33488281 -2.38724609 33.33488281 -5.6875 33.44140625 C-7.7957633 33.488311 -9.90396665 33.52467738 -12.01245117 33.56005859 C-13.46844858 33.59007916 -14.92426744 33.63091103 -16.37963867 33.68310547 C-30.03286424 34.1601966 -30.03286424 34.1601966 -34.5859375 30.33203125 C-37.15339277 27.57750956 -38.09680356 25.80808671 -38.46484375 21.98046875 C-38.09305092 17.51895477 -37.01366603 15.63312227 -34.15234375 12.23046875 C-30.44511458 9.30370888 -27.82493594 8.90447395 -23.15234375 9.23046875 C-22.98734375 8.50859375 -22.82234375 7.78671875 -22.65234375 7.04296875 C-18.25754846 -1.19727242 -8.40166852 -3.00386334 0 0 Z " fill="#FEFCFB" transform="translate(352.15234375,177.76953125)"/>
<path d="M0 0 C3.38554817 1.79655939 5.95497268 3.89043893 7.84765625 7.23046875 C7.84765625 7.89046875 7.84765625 8.55046875 7.84765625 9.23046875 C9.17796875 9.32328125 9.17796875 9.32328125 10.53515625 9.41796875 C14.74051236 10.44947119 16.23777109 11.80033396 18.84765625 15.23046875 C19.34265625 18.69546875 19.34265625 18.69546875 19.84765625 22.23046875 C49.54765625 22.23046875 79.24765625 22.23046875 109.84765625 22.23046875 C109.84765625 31.14046875 109.84765625 40.05046875 109.84765625 49.23046875 C113.28171875 49.19953125 113.28171875 49.19953125 116.78515625 49.16796875 C119.13931957 49.14676007 121.4945207 49.15775134 123.84765625 49.23046875 C124.84765625 50.23046875 124.84765625 50.23046875 124.97070408 52.46186161 C124.96978229 53.45647624 124.96886049 54.45109087 124.96791077 55.47584534 C124.96997276 57.18177353 124.96997276 57.18177353 124.97207642 58.92216492 C124.96848114 60.18091934 124.96488586 61.43967377 124.96118164 62.73657227 C124.96132767 64.05345032 124.96147369 65.37032837 124.96162415 66.72711182 C124.96191212 70.34885143 124.95601549 73.97055821 124.94905019 77.59229016 C124.94281655 81.37328759 124.94221284 85.1542857 124.94102478 88.93528748 C124.93791149 96.09991165 124.92969814 103.26452065 124.91967529 110.42913812 C124.90851407 118.58378037 124.90300368 126.73842332 124.89797986 134.89307129 C124.88751553 151.67221268 124.86991614 168.45133878 124.84765625 185.23046875 C125.52530029 185.28307861 126.20294434 185.33568848 126.90112305 185.38989258 C127.79484619 185.46747803 128.68856934 185.54506348 129.609375 185.625 C130.49326904 185.69823486 131.37716309 185.77146973 132.2878418 185.84692383 C137.59039028 186.64142108 141.28146286 189.35264585 144.78515625 193.35546875 C146.84765625 196.23046875 146.84765625 196.23046875 146.84765625 198.23046875 C147.87890625 198.25109375 148.91015625 198.27171875 149.97265625 198.29296875 C154.46538202 199.37991853 155.94655856 200.62001494 158.6796875 204.203125 C160.58760925 207.51486877 161.17680686 210.43027539 160.84765625 214.23046875 C159.37335107 218.88616932 157.65546243 222.13662623 153.84765625 225.23046875 C150.27146694 226.42253185 147.03257915 226.36563864 143.3117218 226.35072327 C142.1501898 226.3520049 142.1501898 226.3520049 140.9651925 226.35331243 C138.36259526 226.35496353 135.76006204 226.34945189 133.1574707 226.34399414 C131.29498293 226.34371216 129.43249504 226.34387021 127.57000732 226.34443665 C122.50628719 226.34472421 117.44259062 226.33883409 112.37887597 226.33186269 C107.08975865 226.32562233 101.80064082 226.32502481 96.51152039 226.32383728 C86.49243792 226.32072598 76.47336633 226.3125153 66.45428866 226.30248779 C55.04935895 226.29132041 43.64442873 226.28581462 32.23949492 226.28079236 C8.77554266 226.27033253 -14.68839994 226.25273697 -38.15234375 226.23046875 C-38.15234375 224.91046875 -38.15234375 223.59046875 -38.15234375 222.23046875 C-35.18234375 222.23046875 -32.21234375 222.23046875 -29.15234375 222.23046875 C-29.15234375 216.29046875 -29.15234375 210.35046875 -29.15234375 204.23046875 C-30.45171875 204.16859375 -31.75109375 204.10671875 -33.08984375 204.04296875 C-41.08011198 203.12728652 -47.21787904 198.8996621 -52.6484375 193.12890625 C-59.2410246 184.80683526 -60.17001457 175.58416314 -59.15234375 165.23046875 C-58.10701141 162.32850136 -56.81695601 159.74277964 -55.375 157.01953125 C-53.96955886 153.81350897 -53.59401293 151.01536022 -53.21484375 147.54296875 C-52.29883591 140.39301869 -49.767335 136.28636178 -44.30859375 131.671875 C-39.48175973 128.06197583 -35.89357341 127.05002721 -29.96484375 126.91796875 C-28.33482422 126.86189453 -28.33482422 126.86189453 -26.671875 126.8046875 C-23.398497 127.20068994 -21.77675524 127.77215201 -18.93237305 129.25708008 C-18.22163132 129.62448807 -17.51088959 129.99189606 -16.77861023 130.37043762 C-16.24194229 130.65424789 -15.70527435 130.93805817 -15.15234375 131.23046875 C-15.14203629 130.21791519 -15.13172882 129.20536163 -15.12110901 128.16212463 C-15.0235464 118.64102871 -14.92082904 109.12000065 -14.81300449 99.59901524 C-14.7577321 94.7036475 -14.70430534 89.80827385 -14.6550293 84.9128418 C-14.60744924 80.19253599 -14.555109 75.47230521 -14.499403 70.75208855 C-14.47895053 68.94710078 -14.46024234 67.1420924 -14.44326973 65.33706856 C-14.41928946 62.81781659 -14.38922664 60.29870777 -14.35766602 57.77954102 C-14.35191055 57.02572647 -14.34615509 56.27191193 -14.34022522 55.49525452 C-14.26639591 50.34452091 -14.26639591 50.34452091 -13.15234375 49.23046875 C-8.48389147 49.08620261 -3.82368422 49.1883846 0.84765625 49.23046875 C0.84765625 43.95046875 0.84765625 38.67046875 0.84765625 33.23046875 C-2.38724609 33.33488281 -2.38724609 33.33488281 -5.6875 33.44140625 C-7.7957633 33.488311 -9.90396665 33.52467738 -12.01245117 33.56005859 C-13.46844858 33.59007916 -14.92426744 33.63091103 -16.37963867 33.68310547 C-30.03286424 34.1601966 -30.03286424 34.1601966 -34.5859375 30.33203125 C-37.15339277 27.57750956 -38.09680356 25.80808671 -38.46484375 21.98046875 C-38.09305092 17.51895477 -37.01366603 15.63312227 -34.15234375 12.23046875 C-30.44511458 9.30370888 -27.82493594 8.90447395 -23.15234375 9.23046875 C-22.98734375 8.50859375 -22.82234375 7.78671875 -22.65234375 7.04296875 C-18.25754846 -1.19727242 -8.40166852 -3.00386334 0 0 Z M-10.15234375 54.23046875 C-10.23484375 67.73984375 -10.31734375 81.24921875 -10.40234375 95.16796875 C-10.43875977 99.41921631 -10.47517578 103.67046387 -10.51269531 108.05053711 C-10.52608055 111.89172481 -10.52608055 111.89172481 -10.53411865 115.73292542 C-10.54022438 117.43173931 -10.55421634 119.13053686 -10.574646 120.82923889 C-10.81750196 134.05425565 -10.81750196 134.05425565 -6.15234375 146.23046875 C-5.84296875 147.40609375 -5.53359375 148.58171875 -5.21484375 149.79296875 C-4.27626938 152.8295329 -3.37677133 154.58384113 -1.65234375 157.16796875 C2.62186859 163.69906607 3.91376234 170.85514392 2.3828125 178.57421875 C0.68222543 185.09481295 -2.23543469 192.82807328 -8.2277832 196.50341797 C-10.39712324 198.09382693 -10.39712324 198.09382693 -10.60644531 200.77416992 C-10.58549805 201.76392822 -10.56455078 202.75368652 -10.54296875 203.7734375 C-10.53297852 204.74047607 -10.52298828 205.70751465 -10.51269531 206.70385742 C-10.4762793 207.92951416 -10.43986328 209.1551709 -10.40234375 210.41796875 C-10.31984375 214.31609375 -10.23734375 218.21421875 -10.15234375 222.23046875 C5.02765625 222.23046875 20.20765625 222.23046875 35.84765625 222.23046875 C35.84765625 207.71046875 35.84765625 193.19046875 35.84765625 178.23046875 C55.15265625 178.72546875 55.15265625 178.72546875 74.84765625 179.23046875 C75.17765625 193.42046875 75.50765625 207.61046875 75.84765625 222.23046875 C82.44765625 222.23046875 89.04765625 222.23046875 95.84765625 222.23046875 C94.85765625 219.75546875 94.85765625 219.75546875 93.84765625 217.23046875 C93.16110669 212.19311096 93.30804024 208.30970077 95.59765625 203.73046875 C98.94763237 200.00827306 100.98357811 199.27771797 105.84765625 198.98046875 C107.94552628 198.82917298 107.94552628 198.82917298 109.84765625 198.23046875 C112.11681718 195.4517917 112.11681718 195.4517917 113.84765625 192.23046875 C116.11992679 190.2287066 118.14431728 188.58213823 120.84765625 187.23046875 C120.84765625 143.34046875 120.84765625 99.45046875 120.84765625 54.23046875 C77.61765625 54.23046875 34.38765625 54.23046875 -10.15234375 54.23046875 Z " fill="#E64F3E" transform="translate(352.15234375,177.76953125)"/>
<path d="M0 0 C5.24488442 3.01946533 8.9189251 6.49533635 10.70703125 12.3828125 C11.1903622 14.4867237 11.65552232 16.59489979 12.1015625 18.70703125 C12.97290374 22.05355614 14.49813893 23.90616758 16.8125 26.4375 C20.72679381 33.28751417 20.98008931 40.5447448 19.15625 48.1875 C16.15049113 56.68654233 10.78054537 61.85375966 2.8046875 65.80859375 C0.40534427 66.56603348 -1.68436876 66.47891872 -4.1875 66.4375 C-4.56093818 62.58672771 -4.85015782 58.73396294 -5.125 54.875 C-5.23134766 53.78896484 -5.33769531 52.70292969 -5.44726562 51.58398438 C-5.95933814 43.56151499 -5.95933814 43.56151499 -3.62939453 40.16845703 C-1.69140625 38.28515625 -1.69140625 38.28515625 0.27905273 36.72680664 C0.78509033 36.30133545 1.29112793 35.87586426 1.8125 35.4375 C1.8125 34.7775 1.8125 34.1175 1.8125 33.4375 C-1.14925123 34.05027612 -2.56808783 34.69122522 -5.1875 36.4375 C-5.5175 33.7975 -5.8475 31.1575 -6.1875 28.4375 C-7.1775 28.4375 -8.1675 28.4375 -9.1875 28.4375 C-9.1875 36.0275 -9.1875 43.6175 -9.1875 51.4375 C-13.1875 49.4375 -13.1875 49.4375 -15.625 46.875 C-18.3053537 44.32539526 -19.57818083 43.74687021 -23.1875 43.4375 C-21.01612939 47.49264247 -18.52599638 50.17839819 -15.0625 53.1875 C-14.17304688 53.96609375 -13.28359375 54.7446875 -12.3671875 55.546875 C-11.64789063 56.17078125 -10.92859375 56.7946875 -10.1875 57.4375 C-9.1875 58.4375 -9.1875 58.4375 -9.08984375 60.28515625 C-9.12239583 62.3359375 -9.15494792 64.38671875 -9.1875 66.4375 C-15.65270905 67.45832248 -20.16844316 64.08619459 -25.1875 60.4375 C-30.8094492 55.05998338 -34.28595797 47.7606465 -34.6875 39.9375 C-34.46536036 34.96157201 -32.81119099 28.06119099 -29.1875 24.4375 C-29.05420436 22.75205074 -28.95630187 21.06375604 -28.875 19.375 C-28.31159232 12.97866574 -27.07181719 8.10084128 -22.25 3.6484375 C-15.41948229 -1.65023617 -8.2191953 -3.69863788 0 0 Z " fill="#FEFCFC" transform="translate(331.1875,310.5625)"/>
<path d="M0 0 C33 0 66 0 100 0 C100 7.59 100 15.18 100 23 C67 23 34 23 0 23 C0 15.41 0 7.82 0 0 Z " fill="#FEFBFB" transform="translate(358,204)"/>
<path d="M0 0 C2.62654766 1.6752468 3.74185259 3.20472835 5.0625 6 C6.25183047 8.44098393 6.81633842 9.26786491 9.32421875 10.4140625 C10.9209449 10.88202411 12.52121117 11.33809782 14.125 11.78125 C16.1875 12.4375 16.1875 12.4375 18.25 14.125 C19.65456205 17.58958639 19.97883978 20.81172499 19.1875 24.4375 C17.01175584 27.12855198 15.27684144 28.89282928 12.1875 30.4375 C10.76412251 30.54187444 9.33608004 30.58613817 7.90893555 30.59863281 C7.02429123 30.60824036 6.13964691 30.6178479 5.22819519 30.62774658 C3.79072685 30.6341214 3.79072685 30.6341214 2.32421875 30.640625 C0.84801811 30.64917511 0.84801811 30.64917511 -0.65800476 30.65789795 C-2.74359052 30.6673555 -4.82919127 30.67388492 -6.91479492 30.67773438 C-10.10166626 30.68742902 -13.28788979 30.718441 -16.47460938 30.75 C-18.49999617 30.75653108 -20.52538758 30.76178114 -22.55078125 30.765625 C-23.50302078 30.7779718 -24.45526031 30.7903186 -25.43635559 30.80303955 C-30.37211922 30.78647239 -33.82945068 30.70651671 -37.8125 27.4375 C-40.14076375 24.22227863 -40.20961181 21.32919575 -39.8125 17.4375 C-38.56686665 14.69710663 -37.50114555 12.9731132 -35.125 11.125 C-32.8125 10.4375 -32.8125 10.4375 -28.875 10.8125 C-26.7695475 10.97263526 -26.7695475 10.97263526 -24.8125 10.4375 C-23.23591163 8.5758787 -22.22137162 6.63385745 -21.07421875 4.484375 C-16.62724945 -2.72990336 -7.15345328 -3.53843192 0 0 Z " fill="#FEFCFC" transform="translate(488.8125,369.5625)"/>
<path d="M0 0 C10.23 0 20.46 0 31 0 C31 13.2 31 26.4 31 40 C20.77 40 10.54 40 0 40 C0 26.8 0 13.6 0 0 Z " fill="#FEFDFD" transform="translate(392,360)"/>
<path d="M0 0 C2.41318658 2.0583062 3.73930746 3.96818373 5.125 6.8125 C5.125 7.4725 5.125 8.1325 5.125 8.8125 C6.218125 8.93625 7.31125 9.06 8.4375 9.1875 C12.125 9.8125 12.125 9.8125 15.125 11.8125 C15.62 14.7825 15.62 14.7825 16.125 17.8125 C11.175 17.8125 6.225 17.8125 1.125 17.8125 C1.125 20.1225 1.125 22.4325 1.125 24.8125 C-3.07415307 24.91157258 -7.27268252 24.98406173 -11.47265625 25.03222656 C-12.90051121 25.05230982 -14.32828425 25.07958252 -15.75585938 25.11425781 C-17.81140368 25.16292669 -19.86585855 25.18549967 -21.921875 25.203125 C-23.15776367 25.22407227 -24.39365234 25.24501953 -25.66699219 25.26660156 C-29.45293935 24.73069123 -30.58954513 23.81144063 -32.875 20.8125 C-33.65810284 18.04733688 -33.52716817 15.60423745 -32.875 12.8125 C-30.8125 10.3125 -30.8125 10.3125 -27.875 8.8125 C-24.0625 8.5625 -24.0625 8.5625 -20.875 8.8125 C-20.318125 7.719375 -19.76125 6.62625 -19.1875 5.5 C-14.90688589 -1.84244226 -7.66730067 -3.16692854 0 0 Z " fill="#FEFBFB" transform="translate(351.875,182.1875)"/>
<path d="M0 0 C1.02802734 -0.01224609 2.05605469 -0.02449219 3.11523438 -0.03710938 C4.58766602 -0.04000977 4.58766602 -0.04000977 6.08984375 -0.04296875 C6.99468506 -0.04707764 7.89952637 -0.05118652 8.83178711 -0.05541992 C11.0625 0.1875 11.0625 0.1875 13.0625 2.1875 C13.30541992 4.05102539 13.30541992 4.05102539 13.29296875 6.28515625 C13.29103516 7.08630859 13.28910156 7.88746094 13.28710938 8.71289062 C13.26874023 9.96875977 13.26874023 9.96875977 13.25 11.25 C13.24935547 12.09111328 13.24871094 12.93222656 13.24804688 13.79882812 C13.20273184 20.04726816 13.20273184 20.04726816 12.0625 21.1875 C10.28178754 21.27476223 8.4976686 21.29449041 6.71484375 21.28515625 C5.63525391 21.28193359 4.55566406 21.27871094 3.44335938 21.27539062 C2.30705078 21.26701172 1.17074219 21.25863281 0 21.25 C-1.14017578 21.24548828 -2.28035156 21.24097656 -3.45507812 21.23632812 C-6.28260351 21.22449747 -9.1100264 21.2080141 -11.9375 21.1875 C-11.96638146 17.87501813 -11.98425799 14.56256833 -12 11.25 C-12.00837891 10.30447266 -12.01675781 9.35894531 -12.02539062 8.38476562 C-12.02861328 7.48564453 -12.03183594 6.58652344 -12.03515625 5.66015625 C-12.04039307 4.82750244 -12.04562988 3.99484863 -12.05102539 3.13696289 C-11.75209249 -1.9963258 -3.84668985 0.00240268 0 0 Z " fill="#E75545" transform="translate(444.9375,244.8125)"/>
<path d="M0 0 C3.81248426 -0.02887236 7.6249407 -0.04675492 11.4375 -0.0625 C12.52611328 -0.07087891 13.61472656 -0.07925781 14.73632812 -0.08789062 C15.77080078 -0.09111328 16.80527344 -0.09433594 17.87109375 -0.09765625 C18.82943115 -0.10289307 19.78776855 -0.10812988 20.77514648 -0.11352539 C23 0 23 0 24 1 C24.09860131 2.40348735 24.13078937 3.81180477 24.1328125 5.21875 C24.13474609 6.49298828 24.13474609 6.49298828 24.13671875 7.79296875 C24.13285156 8.68628906 24.12898438 9.57960937 24.125 10.5 C24.13080078 11.83998047 24.13080078 11.83998047 24.13671875 13.20703125 C24.13542969 14.05652344 24.13414062 14.90601563 24.1328125 15.78125 C24.13168457 16.56564453 24.13055664 17.35003906 24.12939453 18.15820312 C24 20 24 20 23 21 C21.30441274 21.09932153 19.60474253 21.13080007 17.90625 21.1328125 C16.87628906 21.13410156 15.84632813 21.13539063 14.78515625 21.13671875 C13.15900391 21.13091797 13.15900391 21.13091797 11.5 21.125 C10.41589844 21.12886719 9.33179688 21.13273437 8.21484375 21.13671875 C7.18488281 21.13542969 6.15492188 21.13414062 5.09375 21.1328125 C4.14177734 21.13168457 3.18980469 21.13055664 2.20898438 21.12939453 C0 21 0 21 -1 20 C-1.10011296 17.01133358 -1.13873975 14.05089547 -1.125 11.0625 C-1.12886719 10.22525391 -1.13273437 9.38800781 -1.13671875 8.52539062 C-1.13542969 7.72423828 -1.13414062 6.92308594 -1.1328125 6.09765625 C-1.13168457 5.36039307 -1.13055664 4.62312988 -1.12939453 3.86352539 C-1 2 -1 2 0 0 Z " fill="#E75343" transform="translate(396,245)"/>
<path d="M0 0 C1.02802734 -0.01224609 2.05605469 -0.02449219 3.11523438 -0.03710938 C4.58766602 -0.04000977 4.58766602 -0.04000977 6.08984375 -0.04296875 C6.99468506 -0.04707764 7.89952637 -0.05118652 8.83178711 -0.05541992 C11.0625 0.1875 11.0625 0.1875 13.0625 2.1875 C13.30541992 4.05102539 13.30541992 4.05102539 13.29296875 6.28515625 C13.29103516 7.08630859 13.28910156 7.88746094 13.28710938 8.71289062 C13.26874023 9.96875977 13.26874023 9.96875977 13.25 11.25 C13.24935547 12.09111328 13.24871094 12.93222656 13.24804688 13.79882812 C13.20273184 20.04726816 13.20273184 20.04726816 12.0625 21.1875 C10.28178754 21.27476223 8.4976686 21.29449041 6.71484375 21.28515625 C5.63525391 21.28193359 4.55566406 21.27871094 3.44335938 21.27539062 C2.30705078 21.26701172 1.17074219 21.25863281 0 21.25 C-1.14017578 21.24548828 -2.28035156 21.24097656 -3.45507812 21.23632812 C-6.28260351 21.22449747 -9.1100264 21.2080141 -11.9375 21.1875 C-11.96638146 17.87501813 -11.98425799 14.56256833 -12 11.25 C-12.00837891 10.30447266 -12.01675781 9.35894531 -12.02539062 8.38476562 C-12.02861328 7.48564453 -12.03183594 6.58652344 -12.03515625 5.66015625 C-12.04039307 4.82750244 -12.04562988 3.99484863 -12.05102539 3.13696289 C-11.75209249 -1.9963258 -3.84668985 0.00240268 0 0 Z " fill="#E75343" transform="translate(369.9375,244.8125)"/>
<path d="M0 0 C3.97921094 -0.02682614 7.95824341 -0.04675393 11.9375 -0.0625 C13.07380859 -0.07087891 14.21011719 -0.07925781 15.38085938 -0.08789062 C16.46044922 -0.09111328 17.54003906 -0.09433594 18.65234375 -0.09765625 C20.15269165 -0.10551147 20.15269165 -0.10551147 21.68334961 -0.11352539 C24 0 24 0 25 1 C25.0983721 2.33043625 25.13078592 3.66593344 25.1328125 5 C25.13474609 6.2065625 25.13474609 6.2065625 25.13671875 7.4375 C25.13285156 8.283125 25.12898438 9.12875 25.125 10 C25.13080078 11.2684375 25.13080078 11.2684375 25.13671875 12.5625 C25.13542969 13.366875 25.13414062 14.17125 25.1328125 15 C25.13168457 15.7425 25.13055664 16.485 25.12939453 17.25 C25 19 25 19 24 20 C22.21928754 20.08726223 20.4351686 20.10699041 18.65234375 20.09765625 C17.57275391 20.09443359 16.49316406 20.09121094 15.38085938 20.08789062 C14.24455078 20.07951172 13.10824219 20.07113281 11.9375 20.0625 C10.79732422 20.05798828 9.65714844 20.05347656 8.48242188 20.04882812 C5.65492582 20.0369976 2.82745655 20.0190615 0 20 C0 13.4 0 6.8 0 0 Z " fill="#E65040" transform="translate(433,318)"/>
<path d="M0 0 C1.00023193 0.00523682 2.00046387 0.01047363 3.03100586 0.01586914 C4.1105957 0.0190918 5.19018555 0.02231445 6.30249023 0.02563477 C8.00695312 0.03820312 8.00695312 0.03820312 9.74584961 0.05102539 C11.45611328 0.05779297 11.45611328 0.05779297 13.20092773 0.06469727 C16.02842379 0.07652779 18.85589306 0.09446389 21.68334961 0.11352539 C21.68334961 6.71352539 21.68334961 13.31352539 21.68334961 20.11352539 C17.70413866 20.14035153 13.7251062 20.16027932 9.74584961 20.17602539 C8.04138672 20.18859375 8.04138672 20.18859375 6.30249023 20.20141602 C5.22290039 20.20463867 4.14331055 20.20786133 3.03100586 20.21118164 C1.53065796 20.21903687 1.53065796 20.21903687 0 20.22705078 C-2.31665039 20.11352539 -2.31665039 20.11352539 -3.31665039 19.11352539 C-3.41502249 17.78308914 -3.44743631 16.44759195 -3.44946289 15.11352539 C-3.45075195 14.30915039 -3.45204102 13.50477539 -3.45336914 12.67602539 C-3.44950195 11.83040039 -3.44563477 10.98477539 -3.44165039 10.11352539 C-3.44551758 9.26790039 -3.44938477 8.42227539 -3.45336914 7.55102539 C-3.45208008 6.74665039 -3.45079102 5.94227539 -3.44946289 5.11352539 C-3.44833496 4.37102539 -3.44720703 3.62852539 -3.44604492 2.86352539 C-3.24375664 0.12767185 -2.73437973 0.13399585 0 0 Z " fill="#E64E3D" transform="translate(398.316650390625,317.886474609375)"/>
<path d="M0 0 C3.97921094 -0.02682614 7.95824341 -0.04675393 11.9375 -0.0625 C13.07380859 -0.07087891 14.21011719 -0.07925781 15.38085938 -0.08789062 C16.46044922 -0.09111328 17.54003906 -0.09433594 18.65234375 -0.09765625 C20.15269165 -0.10551147 20.15269165 -0.10551147 21.68334961 -0.11352539 C24 0 24 0 25 1 C25.0983721 2.33043625 25.13078592 3.66593344 25.1328125 5 C25.13474609 6.2065625 25.13474609 6.2065625 25.13671875 7.4375 C25.13285156 8.283125 25.12898438 9.12875 25.125 10 C25.13080078 11.2684375 25.13080078 11.2684375 25.13671875 12.5625 C25.13542969 13.366875 25.13414062 14.17125 25.1328125 15 C25.13168457 15.7425 25.13055664 16.485 25.12939453 17.25 C25 19 25 19 24 20 C22.21928754 20.08726223 20.4351686 20.10699041 18.65234375 20.09765625 C17.57275391 20.09443359 16.49316406 20.09121094 15.38085938 20.08789062 C14.24455078 20.07951172 13.10824219 20.07113281 11.9375 20.0625 C10.79732422 20.05798828 9.65714844 20.05347656 8.48242188 20.04882812 C5.65492582 20.0369976 2.82745655 20.0190615 0 20 C0 13.4 0 6.8 0 0 Z " fill="#E64E3E" transform="translate(358,318)"/>
<path d="M0 0 C3.97921094 -0.02682614 7.95824341 -0.04675393 11.9375 -0.0625 C13.07380859 -0.07087891 14.21011719 -0.07925781 15.38085938 -0.08789062 C16.46044922 -0.09111328 17.54003906 -0.09433594 18.65234375 -0.09765625 C20.15269165 -0.10551147 20.15269165 -0.10551147 21.68334961 -0.11352539 C24 0 24 0 25 1 C25.0983721 2.33043625 25.13078592 3.66593344 25.1328125 5 C25.13474609 6.2065625 25.13474609 6.2065625 25.13671875 7.4375 C25.13285156 8.283125 25.12898438 9.12875 25.125 10 C25.13080078 11.2684375 25.13080078 11.2684375 25.13671875 12.5625 C25.13542969 13.366875 25.13414062 14.17125 25.1328125 15 C25.13168457 15.7425 25.13055664 16.485 25.12939453 17.25 C25 19 25 19 24 20 C22.21928754 20.08726223 20.4351686 20.10699041 18.65234375 20.09765625 C17.57275391 20.09443359 16.49316406 20.09121094 15.38085938 20.08789062 C14.24455078 20.07951172 13.10824219 20.07113281 11.9375 20.0625 C10.79732422 20.05798828 9.65714844 20.05347656 8.48242188 20.04882812 C5.65492582 20.0369976 2.82745655 20.0190615 0 20 C0 13.4 0 6.8 0 0 Z " fill="#E65040" transform="translate(433,282)"/>
<path d="M0 0 C1.00023193 0.00523682 2.00046387 0.01047363 3.03100586 0.01586914 C4.1105957 0.0190918 5.19018555 0.02231445 6.30249023 0.02563477 C8.00695312 0.03820312 8.00695312 0.03820312 9.74584961 0.05102539 C11.45611328 0.05779297 11.45611328 0.05779297 13.20092773 0.06469727 C16.02842379 0.07652779 18.85589306 0.09446389 21.68334961 0.11352539 C21.68334961 6.71352539 21.68334961 13.31352539 21.68334961 20.11352539 C17.70413866 20.14035153 13.7251062 20.16027932 9.74584961 20.17602539 C8.04138672 20.18859375 8.04138672 20.18859375 6.30249023 20.20141602 C5.22290039 20.20463867 4.14331055 20.20786133 3.03100586 20.21118164 C1.53065796 20.21903687 1.53065796 20.21903687 0 20.22705078 C-2.31665039 20.11352539 -2.31665039 20.11352539 -3.31665039 19.11352539 C-3.41502249 17.78308914 -3.44743631 16.44759195 -3.44946289 15.11352539 C-3.45075195 14.30915039 -3.45204102 13.50477539 -3.45336914 12.67602539 C-3.44950195 11.83040039 -3.44563477 10.98477539 -3.44165039 10.11352539 C-3.44551758 9.26790039 -3.44938477 8.42227539 -3.45336914 7.55102539 C-3.45208008 6.74665039 -3.45079102 5.94227539 -3.44946289 5.11352539 C-3.44833496 4.37102539 -3.44720703 3.62852539 -3.44604492 2.86352539 C-3.24375664 0.12767185 -2.73437973 0.13399585 0 0 Z " fill="#E64E3D" transform="translate(398.316650390625,281.886474609375)"/>
<path d="M0 0 C3.97921094 -0.02682614 7.95824341 -0.04675393 11.9375 -0.0625 C13.07380859 -0.07087891 14.21011719 -0.07925781 15.38085938 -0.08789062 C16.46044922 -0.09111328 17.54003906 -0.09433594 18.65234375 -0.09765625 C20.15269165 -0.10551147 20.15269165 -0.10551147 21.68334961 -0.11352539 C24 0 24 0 25 1 C25.0983721 2.33043625 25.13078592 3.66593344 25.1328125 5 C25.13474609 6.2065625 25.13474609 6.2065625 25.13671875 7.4375 C25.13285156 8.283125 25.12898438 9.12875 25.125 10 C25.13080078 11.2684375 25.13080078 11.2684375 25.13671875 12.5625 C25.13542969 13.366875 25.13414062 14.17125 25.1328125 15 C25.13168457 15.7425 25.13055664 16.485 25.12939453 17.25 C25 19 25 19 24 20 C22.21928754 20.08726223 20.4351686 20.10699041 18.65234375 20.09765625 C17.57275391 20.09443359 16.49316406 20.09121094 15.38085938 20.08789062 C14.24455078 20.07951172 13.10824219 20.07113281 11.9375 20.0625 C10.79732422 20.05798828 9.65714844 20.05347656 8.48242188 20.04882812 C5.65492582 20.0369976 2.82745655 20.0190615 0 20 C0 13.4 0 6.8 0 0 Z " fill="#E64E3E" transform="translate(358,282)"/>
<path d="M0 0 C0 6.93 0 13.86 0 21 C-3.3 21 -6.6 21 -10 21 C-11 20 -11 20 -11.09765625 16.18359375 C-11.09098089 14.60153318 -11.07901875 13.01948841 -11.0625 11.4375 C-11.05798828 10.63119141 -11.05347656 9.82488281 -11.04882812 8.99414062 C-11.03700518 6.99606244 -11.01906914 4.99802217 -11 3 C-9.54293274 2.49632243 -8.08429904 1.99717444 -6.625 1.5 C-5.81289063 1.2215625 -5.00078125 0.943125 -4.1640625 0.65625 C-2 0 -2 0 0 0 Z " fill="#FDF7F6" transform="translate(338,379)"/>
<path d="M0 0 C5.28 0 10.56 0 16 0 C16 3.96 16 7.92 16 12 C10.72 12 5.44 12 0 12 C0 8.04 0 4.08 0 0 Z " fill="#FEFAF9" transform="translate(437,322)"/>
<path d="M0 0 C5.28 0 10.56 0 16 0 C16 3.96 16 7.92 16 12 C10.72 12 5.44 12 0 12 C0 8.04 0 4.08 0 0 Z " fill="#FDF7F6" transform="translate(400,322)"/>
<path d="M0 0 C5.28 0 10.56 0 16 0 C16 3.96 16 7.92 16 12 C10.72 12 5.44 12 0 12 C0 8.04 0 4.08 0 0 Z " fill="#FEF9F8" transform="translate(362,322)"/>
<path d="M0 0 C5.28 0 10.56 0 16 0 C16 3.96 16 7.92 16 12 C10.72 12 5.44 12 0 12 C0 8.04 0 4.08 0 0 Z " fill="#FEF9F9" transform="translate(437,286)"/>
<path d="M0 0 C5.28 0 10.56 0 16 0 C16 3.96 16 7.92 16 12 C10.72 12 5.44 12 0 12 C0 8.04 0 4.08 0 0 Z " fill="#FDF6F6" transform="translate(400,286)"/>
<path d="M0 0 C5.28 0 10.56 0 16 0 C16 3.96 16 7.92 16 12 C10.72 12 5.44 12 0 12 C0 8.04 0 4.08 0 0 Z " fill="#FEF8F8" transform="translate(362,286)"/>
<path d="M0 0 C5.28 0 10.56 0 16 0 C16 3.96 16 7.92 16 12 C10.72 12 5.44 12 0 12 C0 8.04 0 4.08 0 0 Z " fill="#FEF8F8" transform="translate(437,250)"/>
<path d="M0 0 C5.28 0 10.56 0 16 0 C16 3.96 16 7.92 16 12 C10.72 12 5.44 12 0 12 C0 8.04 0 4.08 0 0 Z " fill="#FDF6F5" transform="translate(400,250)"/>
<path d="M0 0 C5.28 0 10.56 0 16 0 C16 3.96 16 7.92 16 12 C10.72 12 5.44 12 0 12 C0 8.04 0 4.08 0 0 Z " fill="#FEF8F7" transform="translate(362,250)"/>
<path d="M0 0 C10.23 0 20.46 0 31 0 C31 1.32 31 2.64 31 4 C21.1 4 11.2 4 1 4 C0.67 2.68 0.34 1.36 0 0 Z " fill="#E64D3C" transform="translate(418,215)"/>
</svg>
