<?xml version="1.0" encoding="UTF-8"?>
<svg version="1.1" xmlns="http://www.w3.org/2000/svg" width="800" height="600">
<path d="M0 0 C264 0 528 0 800 0 C800 198 800 396 800 600 C536 600 272 600 0 600 C0 402 0 204 0 0 Z " fill="#FEFEFE" transform="translate(0,0)"/>
<path d="M0 0 C1.30066406 -0.00128906 2.60132813 -0.00257813 3.94140625 -0.00390625 C4.96258545 -0.00076416 4.96258545 -0.00076416 6.00439453 0.00244141 C8.08503515 0.0077901 10.16545989 0.0024957 12.24609375 -0.00390625 C14.19708984 -0.00197266 14.19708984 -0.00197266 16.1875 0 C17.39083984 0.00112793 18.59417969 0.00225586 19.83398438 0.00341797 C22.59375 0.1328125 22.59375 0.1328125 23.59375 1.1328125 C24.9324368 1.23920179 26.27652675 1.27897869 27.61938477 1.29052734 C28.9019088 1.30592056 28.9019088 1.30592056 30.21034241 1.32162476 C31.14253098 1.32892609 32.07471954 1.33622742 33.03515625 1.34375 C35.00065906 1.37184 36.96615373 1.40050458 38.93164062 1.4296875 C42.03653552 1.47080869 45.14128189 1.50768478 48.24633789 1.53417969 C51.23876688 1.56194277 54.23049926 1.60783925 57.22265625 1.65625 C58.1406752 1.65950287 59.05869415 1.66275574 60.00453186 1.66610718 C66.71399041 1.79283664 72.88466858 2.49694949 77.90625 7.3828125 C81.54765796 13.3169588 83.27536302 17.75907861 82.29296875 24.69921875 C81.12443525 28.76623759 78.96048316 31.60440931 75.59375 34.1328125 C69.74636271 37.20190167 64.93153085 37.56061503 58.390625 37.5390625 C56.95121552 37.55531677 56.95121552 37.55531677 55.48272705 37.57189941 C51.3999906 37.61760944 47.31732177 37.62929614 43.234375 37.64404297 C40.24455928 37.65969397 37.25528036 37.69266718 34.265625 37.7265625 C33.34062195 37.72354126 32.4156189 37.72052002 31.46258545 37.71740723 C30.6044928 37.72751831 29.74640015 37.73762939 28.86230469 37.74804688 C27.73148468 37.75112854 27.73148468 37.75112854 26.57781982 37.75427246 C24.07187759 38.23238037 23.3280039 39.32723571 21.59375 41.1328125 C19.07647281 41.39434536 16.81271034 41.4826047 14.30078125 41.42578125 C13.24173836 41.41941399 13.24173836 41.41941399 12.16130066 41.41291809 C9.90922697 41.39614284 7.65805258 41.35849493 5.40625 41.3203125 C3.87826815 41.30526407 2.35027224 41.29157594 0.82226562 41.27929688 C-2.92091872 41.24624339 -6.66343196 41.19447082 -10.40625 41.1328125 C-10.90125 39.1528125 -10.90125 39.1528125 -11.40625 37.1328125 C-12.82992638 37.152798 -12.82992638 37.152798 -14.28236389 37.17318726 C-23.24216002 37.29500166 -32.20178738 37.38484829 -41.16222477 37.44368553 C-45.76857674 37.47495215 -50.3742584 37.51733843 -54.98022461 37.58544922 C-59.42824799 37.65081017 -63.8756281 37.68655366 -68.32409477 37.70207596 C-70.018184 37.71313247 -71.7122394 37.73472415 -73.40605354 37.76719284 C-88.34911939 38.04215289 -88.34911939 38.04215289 -92.85180664 34.31103516 C-94.25697327 32.76040649 -94.25697327 32.76040649 -95.40625 31.1328125 C-95.83381088 30.53665131 -96.26137177 29.94049011 -96.70188904 29.32626343 C-97.84102207 27.64157657 -98.81619931 25.92225872 -99.78125 24.1328125 C-100.12285156 23.54242188 -100.46445312 22.95203125 -100.81640625 22.34375 C-104.31423221 16.06701884 -104.75742793 10.15637114 -104.40625 3.1328125 C-101.74046034 0.46702284 -99.76364173 0.90098358 -96.13969421 0.89508057 C-95.26013565 0.90384216 -94.38057709 0.91260376 -93.47436523 0.92163086 C-92.54909027 0.9229451 -91.62381531 0.92425934 -90.67050171 0.9256134 C-87.6018464 0.93212236 -84.53343758 0.9525614 -81.46484375 0.97265625 C-79.3401771 0.97892302 -77.2155072 0.98416432 -75.09083557 0.98841858 C-69.49010907 1.00174447 -63.88949085 1.02619079 -58.28881836 1.05377197 C-49.31942615 1.09683599 -40.35000401 1.12653721 -31.38054085 1.1498127 C-28.23782017 1.16008118 -25.09518602 1.17712664 -21.95249939 1.19480896 C-20.0379138 1.20163341 -18.12332743 1.20824222 -16.20874023 1.21459961 C-15.32715744 1.22133698 -14.44557465 1.22807434 -13.53727722 1.23501587 C-11.49332124 1.23889882 -9.44936488 1.19157244 -7.40625 1.1328125 C-5.54910943 -0.72432807 -2.48117951 0.00232569 0 0 Z " fill="#FEFDFD" transform="translate(408.40625,288.8671875)"/>
<path d="M0 0 C1.30066406 -0.00128906 2.60132813 -0.00257813 3.94140625 -0.00390625 C4.96258545 -0.00076416 4.96258545 -0.00076416 6.00439453 0.00244141 C8.08503515 0.0077901 10.16545989 0.0024957 12.24609375 -0.00390625 C14.19708984 -0.00197266 14.19708984 -0.00197266 16.1875 0 C17.39083984 0.00112793 18.59417969 0.00225586 19.83398438 0.00341797 C22.59375 0.1328125 22.59375 0.1328125 23.59375 1.1328125 C24.9324368 1.23920179 26.27652675 1.27897869 27.61938477 1.29052734 C28.9019088 1.30592056 28.9019088 1.30592056 30.21034241 1.32162476 C31.14253098 1.32892609 32.07471954 1.33622742 33.03515625 1.34375 C35.00065906 1.37184 36.96615373 1.40050458 38.93164062 1.4296875 C42.03653552 1.47080869 45.14128189 1.50768478 48.24633789 1.53417969 C51.23876688 1.56194277 54.23049926 1.60783925 57.22265625 1.65625 C58.1406752 1.65950287 59.05869415 1.66275574 60.00453186 1.66610718 C66.71399041 1.79283664 72.88466858 2.49694949 77.90625 7.3828125 C81.54765796 13.3169588 83.27536302 17.75907861 82.29296875 24.69921875 C81.12443525 28.76623759 78.96048316 31.60440931 75.59375 34.1328125 C69.74636271 37.20190167 64.93153085 37.56061503 58.390625 37.5390625 C56.95121552 37.55531677 56.95121552 37.55531677 55.48272705 37.57189941 C51.3999906 37.61760944 47.31732177 37.62929614 43.234375 37.64404297 C40.24455928 37.65969397 37.25528036 37.69266718 34.265625 37.7265625 C33.34062195 37.72354126 32.4156189 37.72052002 31.46258545 37.71740723 C30.6044928 37.72751831 29.74640015 37.73762939 28.86230469 37.74804688 C27.73148468 37.75112854 27.73148468 37.75112854 26.57781982 37.75427246 C24.07187759 38.23238037 23.3280039 39.32723571 21.59375 41.1328125 C19.07647281 41.39434536 16.81271034 41.4826047 14.30078125 41.42578125 C13.24173836 41.41941399 13.24173836 41.41941399 12.16130066 41.41291809 C9.90922697 41.39614284 7.65805258 41.35849493 5.40625 41.3203125 C3.87826815 41.30526407 2.35027224 41.29157594 0.82226562 41.27929688 C-2.92091872 41.24624339 -6.66343196 41.19447082 -10.40625 41.1328125 C-10.90125 39.1528125 -10.90125 39.1528125 -11.40625 37.1328125 C-12.82992638 37.152798 -12.82992638 37.152798 -14.28236389 37.17318726 C-23.24216002 37.29500166 -32.20178738 37.38484829 -41.16222477 37.44368553 C-45.76857674 37.47495215 -50.3742584 37.51733843 -54.98022461 37.58544922 C-59.42824799 37.65081017 -63.8756281 37.68655366 -68.32409477 37.70207596 C-70.018184 37.71313247 -71.7122394 37.73472415 -73.40605354 37.76719284 C-88.34911939 38.04215289 -88.34911939 38.04215289 -92.85180664 34.31103516 C-94.25697327 32.76040649 -94.25697327 32.76040649 -95.40625 31.1328125 C-95.83381088 30.53665131 -96.26137177 29.94049011 -96.70188904 29.32626343 C-97.84102207 27.64157657 -98.81619931 25.92225872 -99.78125 24.1328125 C-100.12285156 23.54242188 -100.46445312 22.95203125 -100.81640625 22.34375 C-104.31423221 16.06701884 -104.75742793 10.15637114 -104.40625 3.1328125 C-101.74046034 0.46702284 -99.76364173 0.90098358 -96.13969421 0.89508057 C-95.26013565 0.90384216 -94.38057709 0.91260376 -93.47436523 0.92163086 C-92.54909027 0.9229451 -91.62381531 0.92425934 -90.67050171 0.9256134 C-87.6018464 0.93212236 -84.53343758 0.9525614 -81.46484375 0.97265625 C-79.3401771 0.97892302 -77.2155072 0.98416432 -75.09083557 0.98841858 C-69.49010907 1.00174447 -63.88949085 1.02619079 -58.28881836 1.05377197 C-49.31942615 1.09683599 -40.35000401 1.12653721 -31.38054085 1.1498127 C-28.23782017 1.16008118 -25.09518602 1.17712664 -21.95249939 1.19480896 C-20.0379138 1.20163341 -18.12332743 1.20824222 -16.20874023 1.21459961 C-15.32715744 1.22133698 -14.44557465 1.22807434 -13.53727722 1.23501587 C-11.49332124 1.23889882 -9.44936488 1.19157244 -7.40625 1.1328125 C-5.54910943 -0.72432807 -2.48117951 0.00232569 0 0 Z M-100.40625 5.1328125 C-100.07625 7.7728125 -99.74625 10.4128125 -99.40625 13.1328125 C-98.41625 13.4628125 -97.42625 13.7928125 -96.40625 14.1328125 C-96.62667969 14.85339844 -96.84710938 15.57398438 -97.07421875 16.31640625 C-97.49648647 19.89823007 -96.63821275 21.18830911 -94.71875 24.1953125 C-94.19925781 25.03191406 -93.67976563 25.86851562 -93.14453125 26.73046875 C-91.30129318 29.27786519 -89.88844733 31.18101057 -87.40625 33.1328125 C-84.58699469 33.53565801 -82.15240139 33.69732984 -79.33300781 33.67871094 C-78.52287735 33.68904861 -77.71274689 33.69938629 -76.87806702 33.71003723 C-74.20496748 33.73949396 -71.53262417 33.74096498 -68.859375 33.7421875 C-67.00419671 33.75716724 -65.14903177 33.77389395 -63.29388428 33.79229736 C-58.41456494 33.83600633 -53.5354255 33.85597782 -48.65594482 33.87103271 C-43.67546943 33.89059101 -38.69518868 33.93256246 -33.71484375 33.97265625 C-23.94537249 34.04799677 -14.17594471 34.09826498 -4.40625 34.1328125 C-4.40625 35.1228125 -4.40625 36.1128125 -4.40625 37.1328125 C-0.48972368 37.21995566 3.42655311 37.27325235 7.34375 37.3203125 C8.45492187 37.34544922 9.56609375 37.37058594 10.7109375 37.39648438 C12.31582031 37.41098633 12.31582031 37.41098633 13.953125 37.42578125 C15.42990723 37.44934692 15.42990723 37.44934692 16.93652344 37.47338867 C19.63443531 37.37497393 19.63443531 37.37497393 21.33569336 35.63769531 C25.03843382 33.17000235 29.01724422 33.73262225 33.36328125 33.76171875 C35.32356942 33.74433244 37.28385584 33.7267481 39.24414062 33.70898438 C42.32498456 33.69892508 45.40571261 33.6953122 48.48657227 33.69702148 C51.46665693 33.69343936 54.44585507 33.66604759 57.42578125 33.63671875 C58.33955032 33.64490128 59.2533194 33.6530838 60.19477844 33.66151428 C66.18446913 33.59222127 69.6835538 32.61832557 74.59375 29.1328125 C77.55536651 25.80099393 78.59375 24.17578862 78.59375 19.6953125 C77.10357266 14.38655572 75.31899136 10.28297341 70.59375 7.1328125 C67.64558557 6.89374987 64.78619503 6.77233557 61.83422852 6.73852539 C60.92643332 6.72067175 60.01863811 6.70281811 59.08333397 6.68442345 C56.02569428 6.62734303 52.96803833 6.58493061 49.91015625 6.54296875 C47.72342572 6.50630024 45.53670401 6.46910159 43.34999084 6.43141174 C16.81149181 5.99486632 -9.73095719 5.80647833 -36.27217519 5.61540186 C-43.29364889 5.56473487 -50.31509242 5.51032287 -57.33653653 5.45573127 C-71.69307914 5.34418649 -86.04965153 5.23692072 -100.40625 5.1328125 Z " fill="#E64E3D" transform="translate(408.40625,288.8671875)"/>
<path d="M0 0 C2.3633461 1.54654052 4.1932505 3.25529099 6.1796875 5.2578125 C8.07872739 7.24703328 8.07872739 7.24703328 11.375 8.6875 C14 10 14 10 15.4375 11.75 C16.29639139 15.18556555 15.89872468 17.58484621 15 21 C12.33459938 24.40327814 10.8752769 25.83875493 6.57421875 26.63110352 C5.29160156 26.63037842 4.00898438 26.62965332 2.6875 26.62890625 C1.6504895 26.63252419 1.6504895 26.63252419 0.5925293 26.63621521 C-0.86317708 26.63523956 -2.31892186 26.62191289 -3.77441406 26.59692383 C-5.9941291 26.56259081 -8.2098626 26.57627843 -10.4296875 26.59570312 C-11.84897516 26.58880414 -13.26825262 26.57913126 -14.6875 26.56640625 C-15.97011719 26.55552979 -17.25273437 26.54465332 -18.57421875 26.53344727 C-22.52989552 25.91748705 -24.18716827 24.79163112 -27 22 C-28.55024464 18.89951072 -28.28992015 16.42105782 -28 13 C-25.91786087 9.25214957 -24.7052961 8.20517705 -20.5625 7 C-18.7990625 6.505 -18.7990625 6.505 -17 6 C-14.20754907 3.54182045 -14.20754907 3.54182045 -12 1 C-8.20654298 -0.89672851 -4.11063839 -0.75341613 0 0 Z " fill="#FEFBFA" transform="translate(483,371)"/>
<path d="M0 0 C2.3633461 1.54654052 4.1932505 3.25529099 6.1796875 5.2578125 C8.07872739 7.24703328 8.07872739 7.24703328 11.375 8.6875 C14 10 14 10 15.4375 11.75 C16.29639139 15.18556555 15.89872468 17.58484621 15 21 C12.33459938 24.40327814 10.8752769 25.83875493 6.57421875 26.63110352 C5.29160156 26.63037842 4.00898438 26.62965332 2.6875 26.62890625 C1.6504895 26.63252419 1.6504895 26.63252419 0.5925293 26.63621521 C-0.86317708 26.63523956 -2.31892186 26.62191289 -3.77441406 26.59692383 C-5.9941291 26.56259081 -8.2098626 26.57627843 -10.4296875 26.59570312 C-11.84897516 26.58880414 -13.26825262 26.57913126 -14.6875 26.56640625 C-15.97011719 26.55552979 -17.25273437 26.54465332 -18.57421875 26.53344727 C-22.52989552 25.91748705 -24.18716827 24.79163112 -27 22 C-28.55024464 18.89951072 -28.28992015 16.42105782 -28 13 C-25.91786087 9.25214957 -24.7052961 8.20517705 -20.5625 7 C-18.7990625 6.505 -18.7990625 6.505 -17 6 C-14.20754907 3.54182045 -14.20754907 3.54182045 -12 1 C-8.20654298 -0.89672851 -4.11063839 -0.75341613 0 0 Z M-14 9 C-14.33 9.66 -14.66 10.32 -15 11 C-16.7015625 11.2165625 -16.7015625 11.2165625 -18.4375 11.4375 C-20.2009375 11.7159375 -20.2009375 11.7159375 -22 12 C-24.29637779 14.75895635 -24.29637779 14.75895635 -23.75 17.5625 C-23.16191948 20.15000567 -23.16191948 20.15000567 -21 22 C-18.0377914 22.31218249 -18.0377914 22.31218249 -14.56640625 22.265625 C-13.27798828 22.26820313 -11.98957031 22.27078125 -10.66210938 22.2734375 C-9.98946045 22.26924805 -9.31681152 22.26505859 -8.6237793 22.26074219 C-6.57375351 22.25005865 -4.52460753 22.26062963 -2.47460938 22.2734375 C-1.18490234 22.27085937 0.10480469 22.26828125 1.43359375 22.265625 C2.62009521 22.26336914 3.80659668 22.26111328 5.02905273 22.25878906 C8.185102 22.22355714 8.185102 22.22355714 11 20 C11.25015873 16.41642759 11.25015873 16.41642759 11 13 C9.948125 12.62875 8.89625 12.2575 7.8125 11.875 C4.82478393 10.63808555 3.39152545 9.4620814 1.5625 6.8125 C-1.22317435 3.7206313 -1.22317435 3.7206313 -5 3.3125 C-9.35421638 3.63351028 -11.31990538 5.58897048 -14 9 Z " fill="#E65241" transform="translate(483,371)"/>
<path d="M0 0 C2.1875 0.3125 2.1875 0.3125 4 1 C4.38218767 2.65614657 4.71395102 4.32457024 5 6 C4 7 4 7 1.4375 7.0625 C0.2309375 7.0315625 0.2309375 7.0315625 -1 7 C-1.66 5.68 -2.32 4.36 -3 3 C-1.75 1.4375 -1.75 1.4375 0 0 Z " fill="#E75444" transform="translate(543,248)"/>
<path d="M0 0 C1.65 0.33 3.3 0.66 5 1 C5 2.32 5 3.64 5 5 C3.02 5 1.04 5 -1 5 C-0.67 3.35 -0.34 1.7 0 0 Z " fill="#E85F50" transform="translate(319,249)"/>
<path d="M0 0 C2.625 0.375 2.625 0.375 5 1 C4.67 2.32 4.34 3.64 4 5 C2.35 5 0.7 5 -1 5 C-1.33 4.01 -1.66 3.02 -2 2 C-1.34 1.34 -0.68 0.68 0 0 Z " fill="#E86152" transform="translate(319,373)"/>
</svg>
